<svg xmlns="http://www.w3.org/2000/svg" xmlns:xlink="http://www.w3.org/1999/xlink" contentStyleType="text/css" data-diagram-type="DESCRIPTION" height="660px" preserveAspectRatio="none" style="width:837px;height:660px;background:#F4F6F8;" version="1.1" viewBox="0 0 837 660" width="837px" zoomAndPan="magnify"><?plantuml 1.2026.6?><defs/><g><rect fill="#F4F6F8" height="660" style="stroke:none;stroke-width:1;" width="837" x="0" y="0"/><g class="title" data-source-line="9"><text fill="#000000" font-family="sans-serif" font-size="22" font-weight="700" lengthAdjust="spacing" textLength="229.1094" x="302.9701" y="36.2695">ROS &#32452;&#20214;&#12289;&#35805;&#39064;&#19982;&#26381;&#21153;</text></g><!--cluster bringup--><g class="cluster" data-qualified-name="bringup" data-source-line="10" id="ent0001"><path d="M15,57.9102 L70.0938,57.9102 A6,6 0 0 1 74.0938,61.9102 L81.0938,80.3984 L380,80.3984 A4,4 0 0 1 384,84.3984 L384,257.8802 A4,4 0 0 1 380,261.8802 L15,261.8802 A4,4 0 0 1 11,257.8802 L11,61.9102 A4,4 0 0 1 15,57.9102" fill="#FFFFFF" style="stroke:#000000;stroke-width:1;"/><line style="stroke:#000000;stroke-width:1;" x1="11" x2="81.0938" y1="80.3984" y2="80.3984"/><text fill="#000000" font-family="sans-serif" font-size="14" font-weight="700" lengthAdjust="spacing" textLength="57.0938" x="15" y="73.4453">bringup</text></g><!--cluster robotac_examples--><g class="cluster" data-qualified-name="robotac_examples" data-source-line="15" id="ent0005"><path d="M172,463.8602 L300.1084,463.8602 A6,6 0 0 1 304.1084,467.8602 L311.1084,486.3484 L694,486.3484 A4,4 0 0 1 698,490.3484 L698,557.3502 A4,4 0 0 1 694,561.3502 L172,561.3502 A4,4 0 0 1 168,557.3502 L168,467.8602 A4,4 0 0 1 172,463.8602" fill="#FFFFFF" style="stroke:#000000;stroke-width:1;"/><line style="stroke:#000000;stroke-width:1;" x1="168" x2="311.1084" y1="486.3484" y2="486.3484"/><text fill="#000000" font-family="sans-serif" font-size="14" font-weight="700" lengthAdjust="spacing" textLength="130.1084" x="172" y="479.3953">robotac_examples</text></g><!--entity sensors--><g class="entity" data-qualified-name="bringup.sensors" data-source-line="11" id="ent0002"><rect fill="#FFFFFF" height="46.4883" rx="4" ry="4" style="stroke:#24528C;stroke-width:1;" width="141.6709" x="27.16" y="92.9102"/><rect fill="#FFFFFF" height="10" style="stroke:#24528C;stroke-width:1;" width="15" x="148.8309" y="97.9102"/><rect fill="#FFFFFF" height="2" style="stroke:#24528C;stroke-width:1;" width="4" x="146.8309" y="99.9102"/><rect fill="#FFFFFF" height="2" style="stroke:#24528C;stroke-width:1;" width="4" x="146.8309" y="103.9102"/><text fill="#000000" font-family="sans-serif" font-size="14" lengthAdjust="spacing" textLength="101.6709" x="42.16" y="126.4453">sensors.launch</text></g><!--entity perception--><g class="entity" data-qualified-name="bringup.perception" data-source-line="12" id="ent0003"><rect fill="#FFFFFF" height="46.4883" rx="4" ry="4" style="stroke:#24528C;stroke-width:1;" width="162.1377" x="178.93" y="199.4002"/><rect fill="#FFFFFF" height="10" style="stroke:#24528C;stroke-width:1;" width="15" x="321.0677" y="204.4002"/><rect fill="#FFFFFF" height="2" style="stroke:#24528C;stroke-width:1;" width="4" x="319.0677" y="206.4002"/><rect fill="#FFFFFF" height="2" style="stroke:#24528C;stroke-width:1;" width="4" x="319.0677" y="210.4002"/><text fill="#000000" font-family="sans-serif" font-size="14" lengthAdjust="spacing" textLength="122.1377" x="193.93" y="232.9353">perception.launch</text></g><!--entity base--><g class="entity" data-qualified-name="bringup.base" data-source-line="13" id="ent0004"><rect fill="#FFFFFF" height="46.4883" rx="4" ry="4" style="stroke:#24528C;stroke-width:1;" width="163.8193" x="204.09" y="92.9102"/><rect fill="#FFFFFF" height="10" style="stroke:#24528C;stroke-width:1;" width="15" x="347.9093" y="97.9102"/><rect fill="#FFFFFF" height="2" style="stroke:#24528C;stroke-width:1;" width="4" x="345.9093" y="99.9102"/><rect fill="#FFFFFF" height="2" style="stroke:#24528C;stroke-width:1;" width="4" x="345.9093" y="103.9102"/><text fill="#000000" font-family="sans-serif" font-size="14" lengthAdjust="spacing" textLength="123.8193" x="219.09" y="126.4453">flight_base.launch</text></g><!--entity preview--><g class="entity" data-qualified-name="robotac_examples.preview" data-source-line="16" id="ent0006"><rect fill="#FFFFFF" height="46.4883" rx="4" ry="4" style="stroke:#24528C;stroke-width:1;" width="189.6455" x="184.18" y="498.8602"/><rect fill="#FFFFFF" height="10" style="stroke:#24528C;stroke-width:1;" width="15" x="353.8255" y="503.8602"/><rect fill="#FFFFFF" height="2" style="stroke:#24528C;stroke-width:1;" width="4" x="351.8255" y="505.8602"/><rect fill="#FFFFFF" height="2" style="stroke:#24528C;stroke-width:1;" width="4" x="351.8255" y="509.8602"/><text fill="#000000" font-family="sans-serif" font-size="14" lengthAdjust="spacing" textLength="149.6455" x="199.18" y="532.3953">&#21482;&#35835;&#19982;&#39044;&#35272; 01-05&#12289;09</text></g><!--entity flight--><g class="entity" data-qualified-name="robotac_examples.flight" data-source-line="17" id="ent0007"><rect fill="#FFFFFF" height="46.4883" rx="4" ry="4" style="stroke:#24528C;stroke-width:1;" width="147.6455" x="409.18" y="498.8602"/><rect fill="#FFFFFF" height="10" style="stroke:#24528C;stroke-width:1;" width="15" x="536.8255" y="503.8602"/><rect fill="#FFFFFF" height="2" style="stroke:#24528C;stroke-width:1;" width="4" x="534.8255" y="505.8602"/><rect fill="#FFFFFF" height="2" style="stroke:#24528C;stroke-width:1;" width="4" x="534.8255" y="509.8602"/><text fill="#000000" font-family="sans-serif" font-size="14" lengthAdjust="spacing" textLength="107.6455" x="424.18" y="532.3953">&#39134;&#34892; 06-08&#12289;10</text></g><!--entity release--><g class="entity" data-qualified-name="robotac_examples.release" data-source-line="18" id="ent0008"><rect fill="#FFFFFF" height="46.4883" rx="4" ry="4" style="stroke:#24528C;stroke-width:1;" width="90.1348" x="591.93" y="498.8602"/><rect fill="#FFFFFF" height="10" style="stroke:#24528C;stroke-width:1;" width="15" x="662.0648" y="503.8602"/><rect fill="#FFFFFF" height="2" style="stroke:#24528C;stroke-width:1;" width="4" x="660.0648" y="505.8602"/><rect fill="#FFFFFF" height="2" style="stroke:#24528C;stroke-width:1;" width="4" x="660.0648" y="509.8602"/><text fill="#000000" font-family="sans-serif" font-size="14" lengthAdjust="spacing" textLength="50.1348" x="606.93" y="532.3953">&#25237;&#25918; 11</text></g><!--entity odom--><g class="entity" data-qualified-name="odom" data-source-line="20" id="ent0009"><path d="M62.43,315.8802 L197.5618,315.8802 C202.5618,315.8802 202.5618,329.1243 202.5618,329.1243 C202.5618,329.1243 202.5618,342.3684 197.5618,342.3684 L62.43,342.3684 C57.43,342.3684 57.43,329.1243 57.43,329.1243 C57.43,329.1243 57.43,315.8802 62.43,315.8802" fill="#FFFFFF" style="stroke:#000000;stroke-width:1;"/><path d="M197.5618,315.8802 C192.5618,315.8802 192.5618,329.1243 192.5618,329.1243 C192.5618,342.3684 197.5618,342.3684 197.5618,342.3684" fill="none" style="stroke:#000000;stroke-width:1;"/><text fill="#000000" font-family="sans-serif" font-size="14" lengthAdjust="spacing" textLength="125.1318" x="62.43" y="334.4153">/sunray/odometry</text></g><!--entity vision--><g class="entity" data-qualified-name="vision" data-source-line="21" id="ent0010"><path d="M404.5,209.4002 L597.498,209.4002 C602.498,209.4002 602.498,222.6443 602.498,222.6443 C602.498,222.6443 602.498,235.8884 597.498,235.8884 L404.5,235.8884 C399.5,235.8884 399.5,222.6443 399.5,222.6443 C399.5,222.6443 399.5,209.4002 404.5,209.4002" fill="#FFFFFF" style="stroke:#000000;stroke-width:1;"/><path d="M597.498,209.4002 C592.498,209.4002 592.498,222.6443 592.498,222.6443 C592.498,235.8884 597.498,235.8884 597.498,235.8884" fill="none" style="stroke:#000000;stroke-width:1;"/><text fill="#000000" font-family="sans-serif" font-size="14" lengthAdjust="spacing" textLength="182.998" x="404.5" y="227.9353">/mavros/vision_pose/pose</text></g><!--entity estimator--><g class="entity" data-qualified-name="estimator" data-source-line="22" id="ent0011"><rect fill="#FFFFFF" height="46.4883" rx="4" ry="4" style="stroke:#24528C;stroke-width:1;" width="134.3701" x="433.81" y="305.8802"/><rect fill="#FFFFFF" height="10" style="stroke:#24528C;stroke-width:1;" width="15" x="548.1801" y="310.8802"/><rect fill="#FFFFFF" height="2" style="stroke:#24528C;stroke-width:1;" width="4" x="546.1801" y="312.8802"/><rect fill="#FFFFFF" height="2" style="stroke:#24528C;stroke-width:1;" width="4" x="546.1801" y="316.8802"/><text fill="#000000" font-family="sans-serif" font-size="14" lengthAdjust="spacing" textLength="94.3701" x="448.81" y="339.4153">PX4 estimator</text></g><!--entity local--><g class="entity" data-qualified-name="local" data-source-line="23" id="ent0012"><path d="M397.18,412.3702 L604.8275,412.3702 C609.8275,412.3702 609.8275,425.6143 609.8275,425.6143 C609.8275,425.6143 609.8275,438.8584 604.8275,438.8584 L397.18,438.8584 C392.18,438.8584 392.18,425.6143 392.18,425.6143 C392.18,425.6143 392.18,412.3702 397.18,412.3702" fill="#FFFFFF" style="stroke:#000000;stroke-width:1;"/><path d="M604.8275,412.3702 C599.8275,412.3702 599.8275,425.6143 599.8275,425.6143 C599.8275,438.8584 604.8275,438.8584 604.8275,438.8584" fill="none" style="stroke:#000000;stroke-width:1;"/><text fill="#000000" font-family="sans-serif" font-size="14" lengthAdjust="spacing" textLength="197.6475" x="397.18" y="430.9053">/mavros/local_position/pose</text></g><!--entity tag--><g class="entity" data-qualified-name="tag" data-source-line="24" id="ent0013"><path d="M167.83,412.3702 L352.1601,412.3702 C357.1601,412.3702 357.1601,425.6143 357.1601,425.6143 C357.1601,425.6143 357.1601,438.8584 352.1601,438.8584 L167.83,438.8584 C162.83,438.8584 162.83,425.6143 162.83,425.6143 C162.83,425.6143 162.83,412.3702 167.83,412.3702" fill="#FFFFFF" style="stroke:#000000;stroke-width:1;"/><path d="M352.1601,412.3702 C347.1601,412.3702 347.1601,425.6143 347.1601,425.6143 C347.1601,438.8584 352.1601,438.8584 352.1601,438.8584" fill="none" style="stroke:#000000;stroke-width:1;"/><text fill="#000000" font-family="sans-serif" font-size="14" lengthAdjust="spacing" textLength="174.3301" x="167.83" y="430.9053">/robotac_examples/tag/*</text></g><!--entity target--><g class="entity" data-qualified-name="target" data-source-line="25" id="ent0014"><path d="M121.57,612.4202 L352.4255,612.4202 C357.4255,612.4202 357.4255,625.6643 357.4255,625.6643 C357.4255,625.6643 357.4255,638.9084 352.4255,638.9084 L121.57,638.9084 C116.57,638.9084 116.57,625.6643 116.57,625.6643 C116.57,625.6643 116.57,612.4202 121.57,612.4202" fill="#FFFFFF" style="stroke:#000000;stroke-width:1;"/><path d="M352.4255,612.4202 C347.4255,612.4202 347.4255,625.6643 347.4255,625.6643 C347.4255,638.9084 352.4255,638.9084 352.4255,638.9084" fill="none" style="stroke:#000000;stroke-width:1;"/><text fill="#000000" font-family="sans-serif" font-size="14" lengthAdjust="spacing" textLength="220.8555" x="121.57" y="630.9553">/mavros/setpoint_position/local</text></g><!--entity setreleased--><g class="entity" data-qualified-name="setreleased" data-source-line="26" id="ent0015"><path d="M612.95,612.4202 L817.0496,612.4202 C822.0496,612.4202 822.0496,625.6643 822.0496,625.6643 C822.0496,625.6643 822.0496,638.9084 817.0496,638.9084 L612.95,638.9084 C607.95,638.9084 607.95,625.6643 607.95,625.6643 C607.95,625.6643 607.95,612.4202 612.95,612.4202" fill="#FFFFFF" style="stroke:#000000;stroke-width:1;"/><path d="M817.0496,612.4202 C812.0496,612.4202 812.0496,625.6643 812.0496,625.6643 C812.0496,638.9084 817.0496,638.9084 817.0496,638.9084" fill="none" style="stroke:#000000;stroke-width:1;"/><text fill="#000000" font-family="sans-serif" font-size="14" lengthAdjust="spacing" textLength="194.0996" x="612.95" y="630.9553">/robotac_servo/set_released</text></g><g class="entity" data-qualified-name="GMN27" data-source-line="39" id="ent0028"><path d="M392.74,609.3502 L392.74,641.9712 A4,4 0 0 0 396.74,645.9712 L569.2629,645.9712 A4,4 0 0 0 573.2629,641.9712 L573.2629,615.3502 L563.2629,605.3502 L487,605.3502 L483,545.6402 L479,605.3502 L396.74,605.3502 A4,4 0 0 0 392.74,609.3502" fill="#FFFFFF" style="stroke:#000000;stroke-width:1;"/><path d="M563.2629,605.3502 L563.2629,613.3502 A2,2 0 0 0 565.2629,615.3502 L573.2629,615.3502 L563.2629,605.3502" fill="#FFFFFF" style="stroke:#000000;stroke-width:1;"/><text fill="#000000" font-family="sans-serif" font-size="13" lengthAdjust="spacing" textLength="87.9912" x="398.74" y="622.9185">~start / ~stop</text><text fill="#000000" font-family="sans-serif" font-size="13" lengthAdjust="spacing" textLength="159.5229" x="398.74" y="638.2291">~state / ~active / ~target</text></g><!--link sensors to perception--><g class="link" data-entity-1="ent0002" data-entity-2="ent0003" data-link-type="dependency" data-source-line="27" id="lnk16"><path d="M133.15,139.8202 C160.32,157.3502 193.5576,178.7909 220.7176,196.3009" fill="none" id="sensors-to-perception" style="stroke:#4B5563;stroke-width:1;"/><polygon fill="#4B5563" points="224.92,199.0102,219.5231,190.7716,220.7176,196.3009,215.1883,197.4954,224.92,199.0102" style="stroke:#4B5563;stroke-width:1;stroke-linejoin:miter;stroke-miterlimit:10;"/></g><!--link perception to odom--><g class="link" data-entity-1="ent0003" data-entity-2="ent0009" data-link-type="dependency" data-source-line="28" id="lnk17"><path d="M231.79,246.3102 C205.36,267.5602 170.7177,295.4084 149.4477,312.4984" fill="none" id="perception-to-odom" style="stroke:#4B5563;stroke-width:1;"/><polygon fill="#4B5563" points="145.55,315.6302,155.0713,313.1112,149.4477,312.4984,150.0605,306.8749,145.55,315.6302" style="stroke:#4B5563;stroke-width:1;stroke-linejoin:miter;stroke-miterlimit:10;"/></g><!--link odom to base--><g class="link" data-entity-1="ent0009" data-entity-2="ent0004" data-link-type="dependency" data-source-line="29" id="lnk18"><path d="M130.06,315.5502 C130.78,291.0002 135.36,235.8802 161,199.4002 C179.22,173.4702 204.0622,155.9306 229.6822,142.2106" fill="none" id="odom-to-base" style="stroke:#4B5563;stroke-width:1;"/><polygon fill="#4B5563" points="234.09,139.8502,224.2677,140.5727,229.6822,142.2106,228.0444,147.6252,234.09,139.8502" style="stroke:#4B5563;stroke-width:1;stroke-linejoin:miter;stroke-miterlimit:10;"/></g><!--link base to vision--><g class="link" data-entity-1="ent0004" data-entity-2="ent0010" data-link-type="dependency" data-source-line="30" id="lnk19"><path d="M332.65,139.8202 C376.25,161.0102 435.2531,189.6843 470.4931,206.8143" fill="none" id="base-to-vision" style="stroke:#4B5563;stroke-width:1;"/><polygon fill="#4B5563" points="474.99,209.0002,468.6444,201.468,470.4931,206.8143,465.1469,208.663,474.99,209.0002" style="stroke:#4B5563;stroke-width:1;stroke-linejoin:miter;stroke-miterlimit:10;"/></g><!--link vision to estimator--><g class="link" data-entity-1="ent0010" data-entity-2="ent0011" data-link-type="dependency" data-source-line="31" id="lnk20"><path d="M501,236.0402 C501,253.1202 501,279.1902 501,300.4802" fill="none" id="vision-to-estimator" style="stroke:#4B5563;stroke-width:1;"/><polygon fill="#4B5563" points="501,305.4802,505,296.4802,501,300.4802,497,296.4802,501,305.4802" style="stroke:#4B5563;stroke-width:1;stroke-linejoin:miter;stroke-miterlimit:10;"/></g><!--link estimator to local--><g class="link" data-entity-1="ent0011" data-entity-2="ent0012" data-link-type="dependency" data-source-line="32" id="lnk21"><path d="M501,352.5202 C501,371.0802 501,391.7802 501,406.9602" fill="none" id="estimator-to-local" style="stroke:#4B5563;stroke-width:1;"/><polygon fill="#4B5563" points="501,411.9602,505,402.9602,501,406.9602,497,402.9602,501,411.9602" style="stroke:#4B5563;stroke-width:1;stroke-linejoin:miter;stroke-miterlimit:10;"/></g><!--link local to flight--><g class="link" data-entity-1="ent0012" data-entity-2="ent0007" data-link-type="dependency" data-source-line="33" id="lnk22"><path d="M498.57,439.3602 C495.69,454.4702 491.7746,475.0283 488.2546,493.5283" fill="none" id="local-to-flight" style="stroke:#4B5563;stroke-width:1;"/><polygon fill="#4B5563" points="487.32,498.4402,492.9318,490.3464,488.2546,493.5283,485.0727,488.8511,487.32,498.4402" style="stroke:#4B5563;stroke-width:1;stroke-linejoin:miter;stroke-miterlimit:10;"/></g><!--link perception to tag--><g class="link" data-entity-1="ent0003" data-entity-2="ent0013" data-link-type="dependency" data-source-line="34" id="lnk23"><path d="M260,246.3002 C260,288.8002 260,374.1602 260,407.1902" fill="none" id="perception-to-tag" style="stroke:#4B5563;stroke-width:1;"/><polygon fill="#4B5563" points="260,412.1902,264,403.1902,260,407.1902,256,403.1902,260,412.1902" style="stroke:#4B5563;stroke-width:1;stroke-linejoin:miter;stroke-miterlimit:10;"/></g><!--link tag to preview--><g class="link" data-entity-1="ent0013" data-entity-2="ent0006" data-link-type="dependency" data-source-line="35" id="lnk24"><path d="M262.56,439.3602 C265.6,454.4702 269.7343,475.0383 273.4543,493.5383" fill="none" id="tag-to-preview" style="stroke:#4B5563;stroke-width:1;"/><polygon fill="#4B5563" points="274.44,498.4402,276.5873,488.8282,273.4543,493.5383,268.7443,490.4053,274.44,498.4402" style="stroke:#4B5563;stroke-width:1;stroke-linejoin:miter;stroke-miterlimit:10;"/></g><!--link flight to target--><g class="link" data-entity-1="ent0007" data-entity-2="ent0014" data-link-type="dependency" data-source-line="36" id="lnk25"><path d="M440.45,545.8402 C425.06,553.7002 407.43,562.3002 391,569.3502 C352.75,585.7602 312.594,599.9208 281.174,610.3808" fill="none" id="flight-to-target" style="stroke:#4B5563;stroke-width:1;"/><polygon fill="#4B5563" points="276.43,611.9602,286.2327,612.9126,281.174,610.3808,283.7058,605.3222,276.43,611.9602" style="stroke:#4B5563;stroke-width:1;stroke-linejoin:miter;stroke-miterlimit:10;"/></g><!--link release to setreleased--><g class="link" data-entity-1="ent0008" data-entity-2="ent0015" data-link-type="dependency" data-source-line="37" id="lnk26"><path d="M654.31,545.6402 C670.02,566.1002 689.5639,591.5452 702.2939,608.1152" fill="none" id="release-to-setreleased" style="stroke:#4B5563;stroke-width:1;"/><polygon fill="#4B5563" points="705.34,612.0802,703.029,602.5063,702.2939,608.1152,696.685,607.3801,705.34,612.0802" style="stroke:#4B5563;stroke-width:1;stroke-linejoin:miter;stroke-miterlimit:10;"/></g><?plantuml-src RPBFYnCn5CVlyrV4UXFgJDUsr8lWBlIeOY_UIZhpEWsRoHkJJEiYYi8UPF77HS73hh3hGV2oDn4A_ZFkrlQ_CCd4phIrq3JlvVE-xqVV3Js134ZEAHE1EcGYfv9cP4JZmrHY8P83v2Z9pNwxt-ttQeIQq0HdJAHaJBc2seiBYr4AaAGUaS2O5bptKUW7rEGSKA468DcunjoN4cS-PNk_q-dUgJt6cEKeGEZzdUhSvxyeoWIan_RQdRtUGQ2Pva0UFnoGF_FZg_cFtwzUBo_FLXUVhtw-Nvo-kpuv3tAJWQP06YDfMYpo1daUa4gLD1G8XLBTvhGGyQH1g2BUjSdb86F8DKDHHoll9ZtcB9teuOWggEFM3bvKHKaSeQRn49xHBEUWTggx_l1zUJatxQmkZfVVtf2erOmwfiteRfbUmfJ1R3DczVNBylmjYRhDg6VGLkJGig9DSd7oQV7n5scr7261GrdVqm8AKrse2Y7fKOW9Pg3baQEiiGOoEfMemYbJPWB371M4zd1WwGngwHuzQHDGccLKetJCsjfMv1XJRWMPdMqbwlnhU7jyeQPfUCk1vhQjgK3do8IkP9sQnsKAUaTOWPoY3HpwuIH-GVG_E_3BGfhDU_LjgAxknKtD7ivoQs0FP_b1bJ_EKurbVNF-idjtEjl_frkvRElcMrRa5wGa_RDhrJVWNFL-16eWfdjjQiLnjJOlbGdK9BGNpBt3eCP1OyscxkQrGIJ4wlm5?></g></svg>