<svg xmlns="http://www.w3.org/2000/svg" xmlns:xlink="http://www.w3.org/1999/xlink" contentStyleType="text/css" data-diagram-type="STATE" height="723px" preserveAspectRatio="none" style="width:458px;height:723px;" version="1.1" viewBox="0 0 458 723" width="458px" zoomAndPan="magnify"><?plantuml 1.2026.6?><defs/><g><g class="title" data-source-line="9"><text fill="#000000" font-family="sans-serif" font-size="22" font-weight="700" lengthAdjust="spacing" textLength="236.124" x="110.1505" y="36.2695">C1 &#33267; C5 &#27604;&#36187;&#20219;&#21153;&#27969;&#31243;</text></g><g class="entity" data-qualified-name="C1" data-source-line="11" id="ent0001"><rect fill="#F8FAFC" height="50" rx="4" ry="4" style="stroke:#24528C;stroke-width:1;" width="140.9688" x="214" y="137.9102"/><line style="stroke:#24528C;stroke-width:1;" x1="214" x2="354.9688" y1="164.3984" y2="164.3984"/><text fill="#000000" font-family="sans-serif" font-size="14" lengthAdjust="spacing" textLength="120.9688" x="224" y="156.4453">C1 &#36215;&#39134;&#19982;&#29366;&#24577;&#24314;&#31435;</text></g><g class="entity" data-qualified-name="C2" data-source-line="12" id="ent0002"><rect fill="#F8FAFC" height="50" rx="4" ry="4" style="stroke:#24528C;stroke-width:1;" width="98.9688" x="235" y="247.9102"/><line style="stroke:#24528C;stroke-width:1;" x1="235" x2="333.9688" y1="274.3984" y2="274.3984"/><text fill="#000000" font-family="sans-serif" font-size="14" lengthAdjust="spacing" textLength="78.9688" x="245" y="266.4453">C2 &#21435;&#31243;&#32469;&#38556;</text></g><g class="entity" data-qualified-name="C3" data-source-line="13" id="ent0003"><rect fill="#F8FAFC" height="50" rx="4" ry="4" style="stroke:#24528C;stroke-width:1;" width="182.9688" x="193" y="357.9102"/><line style="stroke:#24528C;stroke-width:1;" x1="193" x2="375.9688" y1="384.3984" y2="384.3984"/><text fill="#000000" font-family="sans-serif" font-size="14" lengthAdjust="spacing" textLength="162.9688" x="203" y="376.4453">C3 &#35270;&#35273;&#35782;&#21035;&#12289;&#23545;&#20934;&#19982;&#31283;&#23450;</text></g><g class="entity" data-qualified-name="C4" data-source-line="14" id="ent0004"><rect fill="#F8FAFC" height="50" rx="4" ry="4" style="stroke:#24528C;stroke-width:1;" width="98.9688" x="154" y="467.9102"/><line style="stroke:#24528C;stroke-width:1;" x1="154" x2="252.9688" y1="494.3984" y2="494.3984"/><text fill="#000000" font-family="sans-serif" font-size="14" lengthAdjust="spacing" textLength="78.9688" x="164" y="486.4453">C4 &#33258;&#20027;&#37322;&#25918;</text></g><g class="entity" data-qualified-name="C5" data-source-line="15" id="ent0005"><rect fill="#F8FAFC" height="50" rx="4" ry="4" style="stroke:#24528C;stroke-width:1;" width="168.9688" x="12" y="577.9102"/><line style="stroke:#24528C;stroke-width:1;" x1="12" x2="180.9688" y1="604.3984" y2="604.3984"/><text fill="#000000" font-family="sans-serif" font-size="14" lengthAdjust="spacing" textLength="148.9688" x="22" y="596.4453">C5 &#36820;&#31243;&#32469;&#38556;&#19982;&#33258;&#20027;&#38477;&#33853;</text></g><g class="start_entity" data-qualified-name=".start." data-source-line="10" id="ent0006"><ellipse cx="284.48" cy="67.9102" fill="#FFFFFF" rx="10" ry="10" style="stroke:#000000;stroke-width:1;"/></g><g class="end_entity" data-qualified-name=".end." data-source-line="20" id="ent0012"><ellipse cx="96.48" cy="698.9102" fill="none" rx="11" ry="11" style="stroke:#000000;stroke-width:1;"/><ellipse cx="96.48" cy="698.9102" fill="#FFFFFF" rx="6" ry="6" style="stroke:#000000;stroke-width:1;"/></g><g class="entity" data-qualified-name="GMN14" data-source-line="21" id="ent0015"><path d="M287.55,484.2502 L287.55,501.5607 A4,4 0 0 0 291.55,505.5607 L439.425,505.5607 A4,4 0 0 0 443.425,501.5607 L443.425,490.2502 L433.425,480.2502 L360.39,480.2502 L302.66,408.1502 L352.39,480.2502 L291.55,480.2502 A4,4 0 0 0 287.55,484.2502" fill="#FFFFFF" style="stroke:#000000;stroke-width:1;"/><path d="M433.425,480.2502 L433.425,488.2502 A2,2 0 0 0 435.425,490.2502 L443.425,490.2502 L433.425,480.2502" fill="#FFFFFF" style="stroke:#000000;stroke-width:1;"/><text fill="#000000" font-family="sans-serif" font-size="13" lengthAdjust="spacing" textLength="134.875" x="293.55" y="497.8185">&#31034;&#20363; 03&#12289;04&#12289;09&#12289;10</text></g><g class="entity" data-qualified-name="GMN17" data-source-line="22" id="ent0018"><path d="M216.15,594.2502 L216.15,611.5607 A4,4 0 0 0 220.15,615.5607 L400.817,615.5607 A4,4 0 0 0 404.817,611.5607 L404.817,600.2502 L394.817,590.2502 L302.46,590.2502 L227.5,518.1502 L294.46,590.2502 L220.15,590.2502 A4,4 0 0 0 216.15,594.2502" fill="#FFFFFF" style="stroke:#000000;stroke-width:1;"/><path d="M394.817,590.2502 L394.817,598.2502 A2,2 0 0 0 396.817,600.2502 L404.817,600.2502 L394.817,590.2502" fill="#FFFFFF" style="stroke:#000000;stroke-width:1;"/><text fill="#000000" font-family="sans-serif" font-size="13" lengthAdjust="spacing" textLength="167.667" x="222.15" y="607.8185">&#31034;&#20363; 11 &#21482;&#25552;&#20379;&#29420;&#31435;&#26426;&#26500;&#21160;&#20316;</text></g><!--link *start* to C1--><g class="link" data-entity-1="ent0006" data-entity-2="ent0001" data-link-type="dependency" data-source-line="10" id="lnk7"><path d="M284.48,78.1702 C284.48,91.8602 284.48,112.9802 284.48,132.4302" fill="none" id="*start*-to-C1" style="stroke:#4B5563;stroke-width:1;"/><polygon fill="#4B5563" points="284.48,137.4302,288.48,128.4302,284.48,132.4302,280.48,128.4302,284.48,137.4302" style="stroke:#4B5563;stroke-width:1;stroke-linejoin:miter;stroke-miterlimit:10;"/></g><!--link C1 to C2--><g class="link" data-entity-1="ent0001" data-entity-2="ent0002" data-link-type="dependency" data-source-line="16" id="lnk8"><path d="M284.48,188.1502 C284.48,205.9302 284.48,224.9902 284.48,242.7502" fill="none" id="C1-to-C2" style="stroke:#4B5563;stroke-width:1;"/><polygon fill="#4B5563" points="284.48,247.7502,288.48,238.7502,284.48,242.7502,280.48,238.7502,284.48,247.7502" style="stroke:#4B5563;stroke-width:1;stroke-linejoin:miter;stroke-miterlimit:10;"/></g><!--link C2 to C3--><g class="link" data-entity-1="ent0002" data-entity-2="ent0003" data-link-type="dependency" data-source-line="17" id="lnk9"><path d="M284.48,298.1502 C284.48,315.9302 284.48,334.9902 284.48,352.7502" fill="none" id="C2-to-C3" style="stroke:#4B5563;stroke-width:1;"/><polygon fill="#4B5563" points="284.48,357.7502,288.48,348.7502,284.48,352.7502,280.48,348.7502,284.48,357.7502" style="stroke:#4B5563;stroke-width:1;stroke-linejoin:miter;stroke-miterlimit:10;"/></g><!--link C3 to C4--><g class="link" data-entity-1="ent0003" data-entity-2="ent0004" data-link-type="dependency" data-source-line="18" id="lnk10"><path d="M266.31,408.1502 C252.97,425.9302 237.9314,445.9912 224.6014,463.7512" fill="none" id="C3-to-C4" style="stroke:#4B5563;stroke-width:1;"/><polygon fill="#4B5563" points="221.6,467.7502,230.2017,462.9533,224.6014,463.7512,223.8035,458.1509,221.6,467.7502" style="stroke:#4B5563;stroke-width:1;stroke-linejoin:miter;stroke-miterlimit:10;"/></g><!--link C4 to C5--><g class="link" data-entity-1="ent0004" data-entity-2="ent0005" data-link-type="dependency" data-source-line="19" id="lnk11"><path d="M179.47,518.1502 C161.85,535.9302 141.5395,556.4387 123.9395,574.1987" fill="none" id="C4-to-C5" style="stroke:#4B5563;stroke-width:1;"/><polygon fill="#4B5563" points="120.42,577.7502,129.5963,574.1731,123.9395,574.1987,123.9139,568.5419,120.42,577.7502" style="stroke:#4B5563;stroke-width:1;stroke-linejoin:miter;stroke-miterlimit:10;"/></g><!--link C5 to *end*--><g class="link" data-entity-1="ent0005" data-entity-2="ent0012" data-link-type="dependency" data-source-line="20" id="lnk13"><path d="M96.48,628.1202 C96.48,647.4802 96.48,668.6602 96.48,682.8102" fill="none" id="C5-to-*end*" style="stroke:#4B5563;stroke-width:1;"/><polygon fill="#4B5563" points="96.48,687.8102,100.48,678.8102,96.48,682.8102,92.48,678.8102,96.48,687.8102" style="stroke:#4B5563;stroke-width:1;stroke-linejoin:miter;stroke-miterlimit:10;"/></g><?plantuml-src PP0xImD158Nx-HLNxGGXsOT42q4NKjfOYiLe9hgucP7P4Li5IJJ1Hn4BDGYYO50nXSH75kEFSL_v5zxiIboq6IvplZddt1bJ6wp2OCkXDYVkfistgAGLMALhc-jIRFEI9HmXGKdANPGOLndAtQ0biMFpTIXJnsKP9Ncw9YHd4WgP-n8hqsr75GLNYnHpbz1sYKcxd67cfHGxQUo4iM2QqtesKb755lwqcoWMYlD5wnycP8d97qGpJArW4MKhXu6LXxZs39O9OQSPTozzpmlgrs5tBsetoFBa2anDpI544XiO7-BTry7DbVzs7DLVmjszmEj53urne6uMqo0uzj0Yyiu65wrKrKQg3l5TDRuxZ3lLuE3X2qqwxq6jElHiFmTF5oclZtW3EzxxRzwWLW-R_LGrHge9yMTpb8KcF_3vKNpwaS8cmUB99Xh1Rica4-oHJ0R1X6H2pamct9nmWVQhGYbH0L761p0BqMtFxpSWfsFfd34yPl38v_x1nY-SpqDmSX-UdFhzowZnYByLjdhXrNvGR_iVhMy0?></g></svg>