<svg xmlns="http://www.w3.org/2000/svg" xmlns:xlink="http://www.w3.org/1999/xlink" contentStyleType="text/css" data-diagram-type="DESCRIPTION" height="680px" preserveAspectRatio="none" style="width:1634px;height:680px;" version="1.1" viewBox="0 0 1634 680" width="1634px" zoomAndPan="magnify"><?plantuml 1.2026.6?><defs/><g><g class="title" data-source-line="9"><text fill="#000000" font-family="sans-serif" font-size="22" font-weight="700" lengthAdjust="spacing" textLength="374" x="629" y="36.2695">&#39033;&#30446;&#33258;&#26377;&#20195;&#30721;&#12289;&#31532;&#19977;&#26041;&#19978;&#28216;&#19982;&#39564;&#35777;&#36793;&#30028;</text></g><!--cluster ????--><g class="cluster" data-qualified-name="...." data-source-line="10" id="ent0001"><path d="M688,218.4002 L742,218.4002 A6,6 0 0 1 746,222.4002 L753,240.8884 L1293,240.8884 A4,4 0 0 1 1297,244.8884 L1297,453.3702 A4,4 0 0 1 1293,457.3702 L688,457.3702 A4,4 0 0 1 684,453.3702 L684,222.4002 A4,4 0 0 1 688,218.4002" fill="#F8FAFC" style="stroke:#24528C;stroke-width:1;"/><line style="stroke:#24528C;stroke-width:1;" x1="684" x2="753" y1="240.8884" y2="240.8884"/><text fill="#000000" font-family="sans-serif" font-size="14" font-weight="700" lengthAdjust="spacing" textLength="56" x="688" y="233.9353">&#20248;&#20808;&#20462;&#25913;</text></g><!--cluster ??????--><g class="cluster" data-qualified-name="......" data-source-line="17" id="ent0007"><path d="M15,57.9102 L97,57.9102 A6,6 0 0 1 101,61.9102 L108,80.3984 L416,80.3984 A4,4 0 0 1 420,84.3984 L420,327.8902 A4,4 0 0 1 416,331.8902 L15,331.8902 A4,4 0 0 1 11,327.8902 L11,61.9102 A4,4 0 0 1 15,57.9102" fill="#F8FAFC" style="stroke:#24528C;stroke-width:1;"/><line style="stroke:#24528C;stroke-width:1;" x1="11" x2="108" y1="80.3984" y2="80.3984"/><text fill="#000000" font-family="sans-serif" font-size="14" font-weight="700" lengthAdjust="spacing" textLength="84" x="15" y="73.4453">&#22266;&#23450;&#19978;&#28216;&#29256;&#26412;</text></g><!--entity robotac_examples--><g class="entity" data-qualified-name=".....robotac_examples" data-source-line="11" id="ent0002"><rect fill="#FFFFFF" height="46.4883" rx="4" ry="4" style="stroke:#000000;stroke-width:1;" width="163.8604" x="708.07" y="261.4002"/><rect fill="#FFFFFF" height="10" style="stroke:#000000;stroke-width:1;" width="15" x="851.9304" y="266.4002"/><rect fill="#FFFFFF" height="2" style="stroke:#000000;stroke-width:1;" width="4" x="849.9304" y="268.4002"/><rect fill="#FFFFFF" height="2" style="stroke:#000000;stroke-width:1;" width="4" x="849.9304" y="272.4002"/><text fill="#000000" font-family="sans-serif" font-size="14" lengthAdjust="spacing" textLength="123.8604" x="723.07" y="294.9353">robotac_examples</text></g><!--entity robotac_localization--><g class="entity" data-qualified-name=".....robotac_localization" data-source-line="12" id="ent0003"><rect fill="#FFFFFF" height="46.4883" rx="4" ry="4" style="stroke:#000000;stroke-width:1;" width="176.8486" x="906.58" y="261.4002"/><rect fill="#FFFFFF" height="10" style="stroke:#000000;stroke-width:1;" width="15" x="1063.4286" y="266.4002"/><rect fill="#FFFFFF" height="2" style="stroke:#000000;stroke-width:1;" width="4" x="1061.4286" y="268.4002"/><rect fill="#FFFFFF" height="2" style="stroke:#000000;stroke-width:1;" width="4" x="1061.4286" y="272.4002"/><text fill="#000000" font-family="sans-serif" font-size="14" lengthAdjust="spacing" textLength="136.8486" x="921.58" y="294.9353">robotac_localization</text></g><!--entity robotac_servo--><g class="entity" data-qualified-name=".....robotac_servo" data-source-line="13" id="ent0004"><rect fill="#FFFFFF" height="46.4883" rx="4" ry="4" style="stroke:#000000;stroke-width:1;" width="135.3887" x="1118.31" y="261.4002"/><rect fill="#FFFFFF" height="10" style="stroke:#000000;stroke-width:1;" width="15" x="1233.6987" y="266.4002"/><rect fill="#FFFFFF" height="2" style="stroke:#000000;stroke-width:1;" width="4" x="1231.6987" y="268.4002"/><rect fill="#FFFFFF" height="2" style="stroke:#000000;stroke-width:1;" width="4" x="1231.6987" y="272.4002"/><text fill="#000000" font-family="sans-serif" font-size="14" lengthAdjust="spacing" textLength="95.3887" x="1133.31" y="294.9353">robotac_servo</text></g><!--entity robotac_bringup--><g class="entity" data-qualified-name=".....robotac_bringup" data-source-line="14" id="ent0005"><rect fill="#FFFFFF" height="46.4883" rx="4" ry="4" style="stroke:#000000;stroke-width:1;" width="152.3828" x="713.81" y="386.8902"/><rect fill="#FFFFFF" height="10" style="stroke:#000000;stroke-width:1;" width="15" x="846.1928" y="391.8902"/><rect fill="#FFFFFF" height="2" style="stroke:#000000;stroke-width:1;" width="4" x="844.1928" y="393.8902"/><rect fill="#FFFFFF" height="2" style="stroke:#000000;stroke-width:1;" width="4" x="844.1928" y="397.8902"/><text fill="#000000" font-family="sans-serif" font-size="14" lengthAdjust="spacing" textLength="112.3828" x="728.81" y="420.4253">robotac_bringup</text></g><!--entity docs--><g class="entity" data-qualified-name=".....docs" data-source-line="15" id="ent0006"><rect fill="#FFFFFF" height="46.4883" rx="4" ry="4" style="stroke:#000000;stroke-width:1;" width="71.7188" x="901.14" y="386.8902"/><rect fill="#FFFFFF" height="10" style="stroke:#000000;stroke-width:1;" width="15" x="952.8588" y="391.8902"/><rect fill="#FFFFFF" height="2" style="stroke:#000000;stroke-width:1;" width="4" x="950.8588" y="393.8902"/><rect fill="#FFFFFF" height="2" style="stroke:#000000;stroke-width:1;" width="4" x="950.8588" y="397.8902"/><text fill="#000000" font-family="sans-serif" font-size="14" lengthAdjust="spacing" textLength="31.7188" x="916.14" y="420.4253">docs</text></g><!--entity MAVROS--><g class="entity" data-qualified-name=".......MAVROS" data-source-line="18" id="ent0008"><rect fill="#FFFFFF" height="46.4883" rx="4" ry="4" style="stroke:#000000;stroke-width:1;" width="98.1396" x="34.93" y="100.9102"/><rect fill="#FFFFFF" height="10" style="stroke:#000000;stroke-width:1;" width="15" x="113.0696" y="105.9102"/><rect fill="#FFFFFF" height="2" style="stroke:#000000;stroke-width:1;" width="4" x="111.0696" y="107.9102"/><rect fill="#FFFFFF" height="2" style="stroke:#000000;stroke-width:1;" width="4" x="111.0696" y="111.9102"/><text fill="#000000" font-family="sans-serif" font-size="14" lengthAdjust="spacing" textLength="58.1396" x="49.93" y="134.4453">MAVROS</text></g><!--entity AprilTag--><g class="entity" data-qualified-name=".......AprilTag" data-source-line="19" id="ent0009"><rect fill="#FFFFFF" height="46.4883" rx="4" ry="4" style="stroke:#000000;stroke-width:1;" width="97.6064" x="168.2" y="100.9102"/><rect fill="#FFFFFF" height="10" style="stroke:#000000;stroke-width:1;" width="15" x="245.8064" y="105.9102"/><rect fill="#FFFFFF" height="2" style="stroke:#000000;stroke-width:1;" width="4" x="243.8064" y="107.9102"/><rect fill="#FFFFFF" height="2" style="stroke:#000000;stroke-width:1;" width="4" x="243.8064" y="111.9102"/><text fill="#000000" font-family="sans-serif" font-size="14" lengthAdjust="spacing" textLength="57.6064" x="183.2" y="134.4453">AprilTag</text></g><!--entity Livox--><g class="entity" data-qualified-name=".......Livox" data-source-line="20" id="ent0010"><rect fill="#FFFFFF" height="46.4883" rx="4" ry="4" style="stroke:#000000;stroke-width:1;" width="75.9434" x="301.03" y="100.9102"/><rect fill="#FFFFFF" height="10" style="stroke:#000000;stroke-width:1;" width="15" x="356.9734" y="105.9102"/><rect fill="#FFFFFF" height="2" style="stroke:#000000;stroke-width:1;" width="4" x="354.9734" y="107.9102"/><rect fill="#FFFFFF" height="2" style="stroke:#000000;stroke-width:1;" width="4" x="354.9734" y="111.9102"/><text fill="#000000" font-family="sans-serif" font-size="14" lengthAdjust="spacing" textLength="35.9434" x="316.03" y="134.4453">Livox</text></g><!--entity FAST-LIO--><g class="entity" data-qualified-name=".......FAST-LIO" data-source-line="21" id="ent0011"><rect fill="#FFFFFF" height="46.4883" rx="4" ry="4" style="stroke:#000000;stroke-width:1;" width="104.0322" x="34.98" y="261.4002"/><rect fill="#FFFFFF" height="10" style="stroke:#000000;stroke-width:1;" width="15" x="119.0122" y="266.4002"/><rect fill="#FFFFFF" height="2" style="stroke:#000000;stroke-width:1;" width="4" x="117.0122" y="268.4002"/><rect fill="#FFFFFF" height="2" style="stroke:#000000;stroke-width:1;" width="4" x="117.0122" y="272.4002"/><text fill="#000000" font-family="sans-serif" font-size="14" lengthAdjust="spacing" textLength="64.0322" x="49.98" y="294.9353">FAST-LIO</text></g><!--entity web_cam--><g class="entity" data-qualified-name=".......web_cam" data-source-line="22" id="ent0012"><rect fill="#FFFFFF" height="46.4883" rx="4" ry="4" style="stroke:#000000;stroke-width:1;" width="102.3711" x="173.81" y="261.4002"/><rect fill="#FFFFFF" height="10" style="stroke:#000000;stroke-width:1;" width="15" x="256.1811" y="266.4002"/><rect fill="#FFFFFF" height="2" style="stroke:#000000;stroke-width:1;" width="4" x="254.1811" y="268.4002"/><rect fill="#FFFFFF" height="2" style="stroke:#000000;stroke-width:1;" width="4" x="254.1811" y="272.4002"/><text fill="#000000" font-family="sans-serif" font-size="14" lengthAdjust="spacing" textLength="62.3711" x="188.81" y="294.9353">web_cam</text></g><!--entity ????--><g class="entity" data-qualified-name="...." data-source-line="24" id="ent0013"><rect fill="#FFFFFF" height="46.4883" rx="4" ry="4" style="stroke:#000000;stroke-width:1;" width="96" x="1510" y="100.9102"/><rect fill="#FFFFFF" height="10" style="stroke:#000000;stroke-width:1;" width="15" x="1586" y="105.9102"/><rect fill="#FFFFFF" height="2" style="stroke:#000000;stroke-width:1;" width="4" x="1584" y="107.9102"/><rect fill="#FFFFFF" height="2" style="stroke:#000000;stroke-width:1;" width="4" x="1584" y="111.9102"/><text fill="#000000" font-family="sans-serif" font-size="14" lengthAdjust="spacing" textLength="56" x="1525" y="134.4453">&#26032;&#22686;&#21151;&#33021;</text></g><!--entity ?????--><g class="entity" data-qualified-name="....." data-source-line="24" id="ent0014"><rect fill="#FFFFFF" height="46.4883" rx="4" ry="4" style="stroke:#000000;stroke-width:1;" width="110" x="1503" y="261.4002"/><rect fill="#FFFFFF" height="10" style="stroke:#000000;stroke-width:1;" width="15" x="1593" y="266.4002"/><rect fill="#FFFFFF" height="2" style="stroke:#000000;stroke-width:1;" width="4" x="1591" y="268.4002"/><rect fill="#FFFFFF" height="2" style="stroke:#000000;stroke-width:1;" width="4" x="1591" y="272.4002"/><text fill="#000000" font-family="sans-serif" font-size="14" lengthAdjust="spacing" textLength="70" x="1518" y="294.9353">&#32431;&#20989;&#25968;&#27979;&#35797;</text></g><!--entity ????--><g class="entity" data-qualified-name="...." data-source-line="25" id="ent0016"><rect fill="#FFFFFF" height="46.4883" rx="4" ry="4" style="stroke:#000000;stroke-width:1;" width="96" x="1510" y="386.8902"/><rect fill="#FFFFFF" height="10" style="stroke:#000000;stroke-width:1;" width="15" x="1586" y="391.8902"/><rect fill="#FFFFFF" height="2" style="stroke:#000000;stroke-width:1;" width="4" x="1584" y="393.8902"/><rect fill="#FFFFFF" height="2" style="stroke:#000000;stroke-width:1;" width="4" x="1584" y="397.8902"/><text fill="#000000" font-family="sans-serif" font-size="14" lengthAdjust="spacing" textLength="56" x="1525" y="420.4253">&#31163;&#32447;&#20223;&#30495;</text></g><!--entity ????--><g class="entity" data-qualified-name="...." data-source-line="26" id="ent0018"><rect fill="#FFFFFF" height="46.4883" rx="4" ry="4" style="stroke:#000000;stroke-width:1;" width="96" x="1510" y="512.3702"/><rect fill="#FFFFFF" height="10" style="stroke:#000000;stroke-width:1;" width="15" x="1586" y="517.3702"/><rect fill="#FFFFFF" height="2" style="stroke:#000000;stroke-width:1;" width="4" x="1584" y="519.3702"/><rect fill="#FFFFFF" height="2" style="stroke:#000000;stroke-width:1;" width="4" x="1584" y="523.3702"/><text fill="#000000" font-family="sans-serif" font-size="14" lengthAdjust="spacing" textLength="56" x="1525" y="545.9053">&#21482;&#35835;&#23454;&#26426;</text></g><!--entity ??????--><g class="entity" data-qualified-name="......" data-source-line="27" id="ent0020"><rect fill="#FFFFFF" height="46.4883" rx="4" ry="4" style="stroke:#000000;stroke-width:1;" width="124" x="1496" y="619.8602"/><rect fill="#FFFFFF" height="10" style="stroke:#000000;stroke-width:1;" width="15" x="1600" y="624.8602"/><rect fill="#FFFFFF" height="2" style="stroke:#000000;stroke-width:1;" width="4" x="1598" y="626.8602"/><rect fill="#FFFFFF" height="2" style="stroke:#000000;stroke-width:1;" width="4" x="1598" y="630.8602"/><text fill="#000000" font-family="sans-serif" font-size="14" lengthAdjust="spacing" textLength="84" x="1511" y="653.3953">&#21463;&#25511;&#23454;&#39134;&#35760;&#24405;</text></g><g class="entity" data-qualified-name="GMN23" data-source-line="30" id="ent0024"><path d="M444,275.9902 L444,293.3007 A4,4 0 0 0 448,297.3007 L656,297.3007 A4,4 0 0 0 660,293.3007 L660,281.9902 L650,271.9902 L448,271.9902 A4,4 0 0 0 444,275.9902" fill="#FFFFFF" style="stroke:#000000;stroke-width:1;"/><path d="M650,271.9902 L650,279.9902 A2,2 0 0 0 652,281.9902 L660,281.9902 L650,271.9902" fill="#FFFFFF" style="stroke:#000000;stroke-width:1;"/><text fill="#000000" font-family="sans-serif" font-size="13" lengthAdjust="spacing" textLength="195" x="450" y="289.5585">&#20462;&#25913;&#26102;&#21333;&#29420;&#35760;&#24405;&#26469;&#28304;&#12289;&#25552;&#20132;&#19982;&#24046;&#24322;</text></g><!--link ???? to ?????--><g class="link" data-entity-1="ent0013" data-entity-2="ent0014" data-link-type="dependency" data-source-line="24" id="lnk15"><path d="M1558,147.8602 C1558,177.9902 1558,225.8702 1558,255.9802" fill="none" id="&#26032;&#22686;&#21151;&#33021;-to-&#32431;&#20989;&#25968;&#27979;&#35797;" style="stroke:#4B5563;stroke-width:1;"/><polygon fill="#4B5563" points="1558,260.9802,1562,251.9802,1558,255.9802,1554,251.9802,1558,260.9802" style="stroke:#4B5563;stroke-width:1;stroke-linejoin:miter;stroke-miterlimit:10;"/></g><!--link ????? to ????--><g class="link" data-entity-1="ent0014" data-entity-2="ent0016" data-link-type="dependency" data-source-line="25" id="lnk17"><path d="M1558,308.2902 C1558,330.5702 1558,359.3902 1558,381.6202" fill="none" id="&#32431;&#20989;&#25968;&#27979;&#35797;-to-&#31163;&#32447;&#20223;&#30495;" style="stroke:#4B5563;stroke-width:1;"/><polygon fill="#4B5563" points="1558,386.6202,1562,377.6202,1558,381.6202,1554,377.6202,1558,386.6202" style="stroke:#4B5563;stroke-width:1;stroke-linejoin:miter;stroke-miterlimit:10;"/></g><!--link ???? to ????--><g class="link" data-entity-1="ent0016" data-entity-2="ent0018" data-link-type="dependency" data-source-line="26" id="lnk19"><path d="M1558,433.7802 C1558,456.0602 1558,484.8802 1558,507.1102" fill="none" id="&#31163;&#32447;&#20223;&#30495;-to-&#21482;&#35835;&#23454;&#26426;" style="stroke:#4B5563;stroke-width:1;"/><polygon fill="#4B5563" points="1558,512.1102,1562,503.1102,1558,507.1102,1554,503.1102,1558,512.1102" style="stroke:#4B5563;stroke-width:1;stroke-linejoin:miter;stroke-miterlimit:10;"/></g><!--link ???? to ??????--><g class="link" data-entity-1="ent0018" data-entity-2="ent0020" data-link-type="dependency" data-source-line="27" id="lnk21"><path d="M1558,559.2502 C1558,577.0502 1558,596.7202 1558,614.5102" fill="none" id="&#21482;&#35835;&#23454;&#26426;-to-&#21463;&#25511;&#23454;&#39134;&#35760;&#24405;" style="stroke:#4B5563;stroke-width:1;"/><polygon fill="#4B5563" points="1558,619.5102,1562,610.5102,1558,614.5102,1554,610.5102,1558,619.5102" style="stroke:#4B5563;stroke-width:1;stroke-linejoin:miter;stroke-miterlimit:10;"/></g><!--link ?????? to ????--><g class="link" data-entity-1="ent0007" data-entity-2="ent0001" data-link-type="dependency" data-source-line="28" id="lnk22"><path d="M420.7207,125.3318 C421.4321,125.3466 422.185,125.3625 422.9789,125.3794 C429.3301,125.5145 438.3003,125.7143 449.5319,125.987 C471.9952,126.5322 503.5045,127.3686 541.1997,128.5608 C616.59,130.9452 716.7238,134.7527 818.72,140.5002 C1022.7125,151.9952 1234.155,171.2502 1270,202.4002 C1273.39,205.3452 1276.2377,208.7683 1278.6246,212.5105 C1279.8181,214.3817 1278.7179,234.3204 1279.6913,236.3312" fill="none" id="&#22266;&#23450;&#19978;&#28216;&#29256;&#26412;-to-&#20248;&#20808;&#20462;&#25913;" style="stroke:#4B5563;stroke-width:1;stroke-dasharray:7,7;"/><polygon fill="#4B5563" points="1281.8697,240.8317,1281.5489,230.9881,1279.6913,236.3312,1274.3481,234.4735,1281.8697,240.8317" style="stroke:#4B5563;stroke-width:1;stroke-linejoin:miter;stroke-miterlimit:10;"/><text fill="#000000" font-family="sans-serif" font-size="13" lengthAdjust="spacing" textLength="104" x="1250.61" y="190.9685">&#36890;&#36807;&#20844;&#24320;&#25509;&#21475;&#20381;&#36182;</text></g><!--link ?????? to GMN23--><g class="link" data-entity-1="ent0007" data-entity-2="ent0024" data-link-type="association" data-source-line="30" id="lnk25"><path d="M420.0988,134.3235 C420.2101,134.4495 420.3224,134.5766 420.4357,134.7048 C420.6622,134.9612 420.8928,135.2222 421.1273,135.4876 C421.5962,136.0184 422.0807,136.5669 422.5804,137.1324 C424.5789,139.3946 426.8183,141.9296 429.2617,144.6955 C439.0353,155.7589 452.0719,170.5164 466.0013,186.2852 C493.86,217.8227 525.29,253.4052 541.33,271.5702" fill="none" id="&#22266;&#23450;&#19978;&#28216;&#29256;&#26412;-GMN23" style="stroke:#4B5563;stroke-width:1;stroke-dasharray:7,7;"/></g><?plantuml-src RP9FQnf16CRl-occoTaSqbYaXu8HX4BQG0szY8HnTpHBrfrbTesXfQ0jmPW_caCr9J6chKqB8gkNjBfg_33TcLs_HSVLqhN9RTxd_StplFCoZumTb450Kw2i2lgkh6gGm0n8Gd4tJN1MbI9OmGGO1AewRo7Ly57w3fHmJbRJ80KL7VawtbKH4nKH4FBf4ah1h694iMgyX3mtncrZYCWf7nCc1ETciSjhwy7WayU-fiO7Wscq_jzyoz5GD1oDF01Y8Y4oXrRNWgkXY638XeB0v4lVkJJTOelLI_QWwNmk_CuNd7RRxfLOhM_tZbYlP_VAazQ9socuTtsdUYBCJS6IFVn43mxjiSa-zfV0Mm60EC59R41n6-t3ZAOWFU4N5In2HNu33Hch2mqTaJsye2G9NsXMypG9YzpdtRzSUcbHys8sd5CwPFNsFFr5-FMhpPXtAQmHMTc2QQ_OaFVmldUAXcDRWOtdcrwHGybj4MQctd5MwzAl3NfqxNuO9K0Wy0p47Qj3YoDMxRBROxTJJGZtb3dtVU1OOtimTkhNKyXVpWXQQRcT0JKRh6vnOg7yIvopyWykJPeDr-pIqJJk_ZiJO6M5q_x59y1JCCbVkECYFMZJOPwLRsYbQTzTkRSrGSK60doZ1iu0d08FEV95p8pO-KzwMdMEsxDyTdN3h3F-6rZbpBQ-yKz0Vvbq-5v0gWIcldy0?></g></svg>