<svg xmlns="http://www.w3.org/2000/svg" xmlns:xlink="http://www.w3.org/1999/xlink" contentStyleType="text/css" data-diagram-type="DESCRIPTION" height="357px" preserveAspectRatio="none" style="width:1493px;height:357px;background:#F4F6F8;" version="1.1" viewBox="0 0 1493 357" width="1493px" zoomAndPan="magnify"><?plantuml 1.2026.6?><defs/><g><rect fill="#F4F6F8" height="357" style="stroke:none;stroke-width:1;" width="1493" x="0" y="0"/><g class="title" data-source-line="10"><text fill="#000000" font-family="sans-serif" font-size="22" font-weight="700" lengthAdjust="spacing" textLength="330" x="580.735" y="36.2695">&#20174;&#31163;&#32447;&#26816;&#26597;&#21040;&#21463;&#25511;&#23454;&#39134;&#30340;&#26816;&#26597;&#39034;&#24207;</text></g><!--entity source--><g class="entity" data-qualified-name="source" data-source-line="11" id="ent0001"><rect fill="#FFFFFF" height="52.9766" rx="4" ry="4" style="stroke:#24528C;stroke-width:1;" width="76" x="12" y="286.9102"/><text fill="#000000" font-family="sans-serif" font-size="14" lengthAdjust="spacing" textLength="55.2822" x="22" y="310.4453">1 &#28304;&#30721;&#19982;</text><text fill="#000000" font-family="sans-serif" font-size="14" lengthAdjust="spacing" textLength="56" x="22" y="326.9336">&#21333;&#20803;&#27979;&#35797;</text></g><!--entity sourceGate--><g class="entity" data-qualified-name="sourceGate" data-source-line="12" id="ent0002"><rect fill="#FFFFFF" height="36.4883" rx="4" ry="4" style="stroke:#24528C;stroke-width:1;" width="53.9063" x="149" y="295.1602"/><text fill="#000000" font-family="sans-serif" font-size="14" lengthAdjust="spacing" textLength="33.9063" x="159" y="318.6953">&#36890;&#36807;?</text></g><!--entity simulation--><g class="entity" data-qualified-name="simulation" data-source-line="13" id="ent0003"><rect fill="#FFFFFF" height="36.4883" rx="4" ry="4" style="stroke:#24528C;stroke-width:1;" width="89.2822" x="277.91" y="249.1602"/><text fill="#000000" font-family="sans-serif" font-size="14" lengthAdjust="spacing" textLength="69.2822" x="287.91" y="272.6953">2 &#31616;&#21270;&#20223;&#30495;</text></g><!--entity simulationGate--><g class="entity" data-qualified-name="simulationGate" data-source-line="14" id="ent0004"><rect fill="#FFFFFF" height="52.9766" rx="4" ry="4" style="stroke:#24528C;stroke-width:1;" width="90" x="428.19" y="236.9102"/><text fill="#000000" font-family="sans-serif" font-size="14" lengthAdjust="spacing" textLength="70" x="438.19" y="260.4453">&#27491;&#24120;&#19982;&#25925;&#38556;</text><text fill="#000000" font-family="sans-serif" font-size="14" lengthAdjust="spacing" textLength="61.9063" x="438.19" y="276.9336">&#36335;&#24452;&#36890;&#36807;?</text></g><!--entity readonly--><g class="entity" data-qualified-name="readonly" data-source-line="15" id="ent0005"><rect fill="#FFFFFF" height="52.9766" rx="4" ry="4" style="stroke:#24528C;stroke-width:1;" width="89.2822" x="593.19" y="165.9102"/><text fill="#000000" font-family="sans-serif" font-size="14" lengthAdjust="spacing" textLength="69.2822" x="603.19" y="189.4453">3 &#30495;&#23454;&#35774;&#22791;</text><text fill="#000000" font-family="sans-serif" font-size="14" lengthAdjust="spacing" textLength="28" x="603.19" y="205.9336">&#21482;&#35835;</text></g><!--entity readonlyGate--><g class="entity" data-qualified-name="readonlyGate" data-source-line="16" id="ent0006"><rect fill="#FFFFFF" height="52.9766" rx="4" ry="4" style="stroke:#24528C;stroke-width:1;" width="104" x="757.47" y="165.9102"/><text fill="#000000" font-family="sans-serif" font-size="14" lengthAdjust="spacing" textLength="84" x="767.47" y="189.4453">&#36830;&#25509;&#12289;&#26102;&#38388;&#12289;</text><text fill="#000000" font-family="sans-serif" font-size="14" lengthAdjust="spacing" textLength="61.9063" x="767.47" y="205.9336">&#22352;&#26631;&#27491;&#24120;?</text></g><!--entity bench--><g class="entity" data-qualified-name="bench" data-source-line="17" id="ent0007"><rect fill="#FFFFFF" height="52.9766" rx="4" ry="4" style="stroke:#24528C;stroke-width:1;" width="76" x="936.47" y="94.9102"/><text fill="#000000" font-family="sans-serif" font-size="14" lengthAdjust="spacing" textLength="41.2822" x="946.47" y="118.4453">4 &#25286;&#26728;</text><text fill="#000000" font-family="sans-serif" font-size="14" lengthAdjust="spacing" textLength="56" x="946.47" y="134.9336">&#22320;&#38754;&#32852;&#35843;</text></g><!--entity benchGate--><g class="entity" data-qualified-name="benchGate" data-source-line="18" id="ent0008"><rect fill="#FFFFFF" height="52.9766" rx="4" ry="4" style="stroke:#24528C;stroke-width:1;" width="90" x="1087.47" y="94.9102"/><text fill="#000000" font-family="sans-serif" font-size="14" lengthAdjust="spacing" textLength="70" x="1097.47" y="118.4453">&#25509;&#31649;&#19982;&#20013;&#27490;</text><text fill="#000000" font-family="sans-serif" font-size="14" lengthAdjust="spacing" textLength="47.9063" x="1097.47" y="134.9336">&#22343;&#30830;&#35748;?</text></g><!--entity flight--><g class="entity" data-qualified-name="flight" data-source-line="19" id="ent0009"><rect fill="#FFFFFF" height="52.9766" rx="4" ry="4" style="stroke:#24528C;stroke-width:1;" width="89.2822" x="1252.83" y="58.9102"/><text fill="#000000" font-family="sans-serif" font-size="14" lengthAdjust="spacing" textLength="69.2822" x="1262.83" y="82.4453">5 &#23553;&#38381;&#22330;&#22320;</text><text fill="#000000" font-family="sans-serif" font-size="14" lengthAdjust="spacing" textLength="56" x="1262.83" y="98.9336">&#21463;&#25511;&#23454;&#39134;</text></g><!--entity takeover--><g class="entity" data-qualified-name="takeover" data-source-line="20" id="ent0010"><rect fill="#FFFFFF" height="52.9766" rx="4" ry="4" style="stroke:#24528C;stroke-width:1;" width="76" x="1403.47" y="58.9102"/><text fill="#000000" font-family="sans-serif" font-size="14" lengthAdjust="spacing" textLength="56" x="1413.47" y="82.4453">&#25345;&#32493;&#20445;&#30041;</text><text fill="#000000" font-family="sans-serif" font-size="14" lengthAdjust="spacing" textLength="56" x="1413.47" y="98.9336">&#20154;&#24037;&#25509;&#31649;</text></g><!--entity stop--><g class="entity" data-qualified-name="stop" data-source-line="21" id="ent0011"><rect fill="#FFFFFF" height="52.9766" rx="4" ry="4" style="stroke:#24528C;stroke-width:1;" width="90" x="1252.47" y="208.9102"/><text fill="#000000" font-family="sans-serif" font-size="14" lengthAdjust="spacing" textLength="70" x="1262.47" y="232.4453">&#20572;&#27490;&#24182;&#20462;&#22797;</text><text fill="#000000" font-family="sans-serif" font-size="14" lengthAdjust="spacing" textLength="56" x="1262.47" y="248.9336">&#24403;&#21069;&#38382;&#39064;</text></g><!--link source to sourceGate--><g class="link" data-entity-1="ent0001" data-entity-2="ent0002" data-link-type="dependency" data-source-line="22" id="lnk12"><path d="M88.19,313.4002 C107.73,313.4002 126.2,313.4002 143.81,313.4002" fill="none" id="source-to-sourceGate" style="stroke:#4B5563;stroke-width:1;"/><polygon fill="#4B5563" points="148.81,313.4002,139.81,309.4002,143.81,313.4002,139.81,317.4002,148.81,313.4002" style="stroke:#4B5563;stroke-width:1;stroke-linejoin:miter;stroke-miterlimit:10;"/></g><!--link sourceGate to simulation--><g class="link" data-entity-1="ent0002" data-entity-2="ent0003" data-link-type="dependency" data-source-line="23" id="lnk13"><path d="M203.14,305.0702 C223.89,298.4702 248.5757,290.6171 272.9157,282.8671" fill="none" id="sourceGate-to-simulation" style="stroke:#4B5563;stroke-width:1;"/><polygon fill="#4B5563" points="277.68,281.3502,267.8906,280.2693,272.9157,282.8671,270.3178,287.8922,277.68,281.3502" style="stroke:#4B5563;stroke-width:1;stroke-linejoin:miter;stroke-miterlimit:10;"/><text fill="#000000" font-family="sans-serif" font-size="13" lengthAdjust="spacing" textLength="13" x="233.91" y="288.3485">&#26159;</text></g><!--link simulation to simulationGate--><g class="link" data-entity-1="ent0003" data-entity-2="ent0004" data-link-type="dependency" data-source-line="24" id="lnk14"><path d="M367.34,266.2202 C386.44,265.7102 403.7918,265.2459 422.9418,264.7259" fill="none" id="simulation-to-simulationGate" style="stroke:#4B5563;stroke-width:1;"/><polygon fill="#4B5563" points="427.94,264.5902,418.8347,260.8359,422.9418,264.7259,419.0519,268.833,427.94,264.5902" style="stroke:#4B5563;stroke-width:1;stroke-linejoin:miter;stroke-miterlimit:10;"/></g><!--link simulationGate to readonly--><g class="link" data-entity-1="ent0004" data-entity-2="ent0005" data-link-type="dependency" data-source-line="25" id="lnk15"><path d="M518.63,244.0002 C541.67,233.9402 565.1479,223.6912 588.1379,213.6512" fill="none" id="simulationGate-to-readonly" style="stroke:#4B5563;stroke-width:1;"/><polygon fill="#4B5563" points="592.72,211.6502,582.8713,211.5864,588.1379,213.6512,586.073,218.9178,592.72,211.6502" style="stroke:#4B5563;stroke-width:1;stroke-linejoin:miter;stroke-miterlimit:10;"/><text fill="#000000" font-family="sans-serif" font-size="13" lengthAdjust="spacing" textLength="13" x="549.19" y="222.3385">&#26159;</text></g><!--link readonly to readonlyGate--><g class="link" data-entity-1="ent0005" data-entity-2="ent0006" data-link-type="dependency" data-source-line="26" id="lnk16"><path d="M682.96,192.4002 C705.64,192.4002 728.4,192.4002 752.04,192.4002" fill="none" id="readonly-to-readonlyGate" style="stroke:#4B5563;stroke-width:1;"/><polygon fill="#4B5563" points="757.04,192.4002,748.04,188.4002,752.04,192.4002,748.04,196.4002,757.04,192.4002" style="stroke:#4B5563;stroke-width:1;stroke-linejoin:miter;stroke-miterlimit:10;"/></g><!--link readonlyGate to bench--><g class="link" data-entity-1="ent0006" data-entity-2="ent0007" data-link-type="dependency" data-source-line="27" id="lnk17"><path d="M861.6,170.1302 C885.69,159.6402 909.3165,149.348 931.3865,139.728" fill="none" id="readonlyGate-to-bench" style="stroke:#4B5563;stroke-width:1;"/><polygon fill="#4B5563" points="935.97,137.7302,926.1214,137.6595,931.3865,139.728,929.318,144.9931,935.97,137.7302" style="stroke:#4B5563;stroke-width:1;stroke-linejoin:miter;stroke-miterlimit:10;"/><text fill="#000000" font-family="sans-serif" font-size="13" lengthAdjust="spacing" textLength="13" x="892.47" y="149.2185">&#26159;</text></g><!--link bench to benchGate--><g class="link" data-entity-1="ent0007" data-entity-2="ent0008" data-link-type="dependency" data-source-line="28" id="lnk18"><path d="M1012.84,121.4002 C1035.19,121.4002 1058.72,121.4002 1082.2,121.4002" fill="none" id="bench-to-benchGate" style="stroke:#4B5563;stroke-width:1;"/><polygon fill="#4B5563" points="1087.2,121.4002,1078.2,117.4002,1082.2,121.4002,1078.2,125.4002,1087.2,121.4002" style="stroke:#4B5563;stroke-width:1;stroke-linejoin:miter;stroke-miterlimit:10;"/></g><!--link benchGate to flight--><g class="link" data-entity-1="ent0008" data-entity-2="ent0009" data-link-type="dependency" data-source-line="29" id="lnk19"><path d="M1177.58,111.6602 C1200.87,106.5102 1224.4774,101.2975 1247.7274,96.1675" fill="none" id="benchGate-to-flight" style="stroke:#4B5563;stroke-width:1;"/><polygon fill="#4B5563" points="1252.61,95.0902,1242.9595,93.1233,1247.7274,96.1675,1244.6832,100.9354,1252.61,95.0902" style="stroke:#4B5563;stroke-width:1;stroke-linejoin:miter;stroke-miterlimit:10;"/><text fill="#000000" font-family="sans-serif" font-size="13" lengthAdjust="spacing" textLength="13" x="1208.47" y="98.8885">&#26159;</text></g><!--link flight to takeover--><g class="link" data-entity-1="ent0009" data-entity-2="ent0010" data-link-type="dependency" data-source-line="30" id="lnk20"><path d="M1342.23,85.4002 C1361.79,85.4002 1379.6,85.4002 1398.31,85.4002" fill="none" id="flight-to-takeover" style="stroke:#4B5563;stroke-width:1;"/><polygon fill="#4B5563" points="1403.31,85.4002,1394.31,81.4002,1398.31,85.4002,1394.31,89.4002,1403.31,85.4002" style="stroke:#4B5563;stroke-width:1;stroke-linejoin:miter;stroke-miterlimit:10;"/></g><!--link sourceGate to stop--><g class="link" data-entity-1="ent0002" data-entity-2="ent0011" data-link-type="dependency" data-source-line="31" id="lnk21"><path d="M203.29,321.9402 C232.03,330.5002 279.56,342.4002 321.55,342.4002 C321.55,342.4002 321.55,342.4002 1133.47,342.4002 C1191.86,342.4002 1242.2059,297.5192 1271.0359,265.8192" fill="none" id="sourceGate-to-stop" style="stroke:#4B5563;stroke-width:1;"/><polygon fill="#4B5563" points="1274.4,262.1202,1265.3854,266.0871,1271.0359,265.8192,1271.3038,271.4697,1274.4,262.1202" style="stroke:#4B5563;stroke-width:1;stroke-linejoin:miter;stroke-miterlimit:10;"/><text fill="#000000" font-family="sans-serif" font-size="13" lengthAdjust="spacing" textLength="13" x="713.47" y="338.9685">&#21542;</text></g><!--link simulationGate to stop--><g class="link" data-entity-1="ent0004" data-entity-2="ent0011" data-link-type="dependency" data-source-line="32" id="lnk22"><path d="M518.68,266.7702 C551.36,268.9602 596.83,271.4002 636.83,271.4002 C636.83,271.4002 636.83,271.4002 1133.47,271.4002 C1174.33,271.4002 1214.8439,261.927 1247.2939,252.117" fill="none" id="simulationGate-to-stop" style="stroke:#4B5563;stroke-width:1;"/><polygon fill="#4B5563" points="1252.08,250.6702,1242.3076,249.4457,1247.2939,252.117,1244.6226,257.1034,1252.08,250.6702" style="stroke:#4B5563;stroke-width:1;stroke-linejoin:miter;stroke-miterlimit:10;"/><text fill="#000000" font-family="sans-serif" font-size="13" lengthAdjust="spacing" textLength="13" x="892.47" y="267.9685">&#21542;</text></g><!--link readonlyGate to stop--><g class="link" data-entity-1="ent0006" data-entity-2="ent0011" data-link-type="dependency" data-source-line="33" id="lnk23"><path d="M861.56,196.9202 C957.22,205.3802 1156.8195,223.0394 1247.1095,231.0294" fill="none" id="readonlyGate-to-stop" style="stroke:#4B5563;stroke-width:1;"/><polygon fill="#4B5563" points="1252.09,231.4702,1243.4776,226.6924,1247.1095,231.0294,1242.7724,234.6613,1252.09,231.4702" style="stroke:#4B5563;stroke-width:1;stroke-linejoin:miter;stroke-miterlimit:10;"/><text fill="#000000" font-family="sans-serif" font-size="13" lengthAdjust="spacing" textLength="13" x="1043.47" y="209.9685">&#21542;</text></g><!--link benchGate to stop--><g class="link" data-entity-1="ent0008" data-entity-2="ent0011" data-link-type="dependency" data-source-line="34" id="lnk24"><path d="M1174,148.2602 C1189.28,158.5102 1206.76,170.3802 1222.47,181.4002 C1234.84,190.0802 1244.1854,196.7969 1256.1254,205.5369" fill="none" id="benchGate-to-stop" style="stroke:#4B5563;stroke-width:1;"/><polygon fill="#4B5563" points="1260.16,208.4902,1255.2604,199.9465,1256.1254,205.5369,1250.5351,206.4019,1260.16,208.4902" style="stroke:#4B5563;stroke-width:1;stroke-linejoin:miter;stroke-miterlimit:10;"/><text fill="#000000" font-family="sans-serif" font-size="13" lengthAdjust="spacing" textLength="13" x="1208.47" y="167.9485">&#21542;</text></g><?plantuml-src RLJBRjf05Dtp5TDqdKK9H54NHKqakkicssmcC825cOa6qwWxK9BIAWc9r59I12IyqgeIXaMRKAE6ZwbdRFz51zirur2lxkESEUVUA_c9baC510vKgE18CQ_W0qXX0Up3L3vBIGcdTuXAA7YQZ2KtariIefY3QNAeu2p8GBM8f8vBIn6A4GKo8uqoiAHgIOArrr1exa9St4LKoKYObvIIGryojXsFRsx83wEK1d5MHTihxjpllr12quZwi6Wi7jtQYQWeem6D0AfaSnf8AmkmGd14KpGL0NDMisvdbZ7d_JA_7hBt4tRHuBMlJEyu_OxLFFRgJjTWnaKa409hpm0tBgsRYZcjxM5sNcSdH_pdgJskhm5O14LIeYaauvroqvvN4rBt5TH2Y2Ymz38x-spEvbRhsWCgXP8ANRiIa8_wR3eLmhn-uZHRUzY-7xE7uv12G7oiiW74us8wMtzWWwgmVl7T7izS4aNYo5XzAyFjUOVNXd_A5TwuSne_H20exKj-K_LS94BCns8nm4_VyUutmMbDd7RFhdoo9qSkPH_XL2uqLMrewLqnbJaTyL5l8LErkhgj3n9BmcE1E62JYjCOiPOX51RJB8_diZBgukmXdREADHkPyxPL_xA7JSDWzqDFsoLeC8_86qHb2gkqX2FswywSwsnmBcH-VsGVpfs6xlIkl7rhv23YdHMihx-GBxmClKvm6V0SyAjnH2g4-nuxbBg8Vyls-K4gz_mzBHEtwwxGftbnK7K9GUJMlTNvS3zPr8CDoPE9lmDUk1Tx40nsURlYV1KHzhVQb-oiDFy2?></g></svg>