<svg xmlns="http://www.w3.org/2000/svg" xmlns:xlink="http://www.w3.org/1999/xlink" contentStyleType="text/css" data-diagram-type="ACTIVITY" height="706px" preserveAspectRatio="none" style="width:295px;height:706px;" version="1.1" viewBox="0 0 295 706" width="295px" zoomAndPan="magnify"><?plantuml 1.2026.6?><defs/><g><g class="title" data-source-line="11"><text fill="#000000" font-family="sans-serif" font-size="22" font-weight="700" lengthAdjust="spacing" textLength="176" x="58.8203" y="36.2695">&#33333;&#26426;&#23433;&#20840;&#26631;&#23450;&#27969;&#31243;</text></g><ellipse cx="142.8203" cy="66.9102" fill="#FFFFFF" rx="10" ry="10" style="stroke:#000000;stroke-width:1;"/><rect fill="#F8FAFC" height="34.1328" rx="4" ry="4" style="stroke:#24528C;stroke-width:1;" width="212" x="36.8203" y="96.9102"/><text fill="#000000" font-family="sans-serif" font-size="12" lengthAdjust="spacing" textLength="192" x="46.8203" y="118.5117">&#26029;&#24320;&#39134;&#34892;&#21160;&#21147;&#12289;&#25286;&#26728;&#12289;&#21368;&#19979;&#20256;&#21160;&#38468;&#20214;</text><rect fill="#F8FAFC" height="34.1328" rx="4" ry="4" style="stroke:#24528C;stroke-width:1;" width="224" x="30.8203" y="151.043"/><text fill="#000000" font-family="sans-serif" font-size="12" lengthAdjust="spacing" textLength="204" x="40.8203" y="172.6445">&#26816;&#26597;&#20379;&#30005;&#12289;&#35774;&#22791;&#12289;&#36719;&#20214;&#38480;&#20301;&#19982;&#26029;&#30005;&#25163;&#27573;</text><rect fill="#F8FAFC" height="34.1328" rx="4" ry="4" style="stroke:#24528C;stroke-width:1;" width="104" x="90.8203" y="205.1758"/><text fill="#000000" font-family="sans-serif" font-size="12" lengthAdjust="spacing" textLength="84" x="100.8203" y="226.7773">&#35064;&#33333;&#26426;&#23567;&#27493;&#28857;&#21160;</text><polygon fill="#FFF4CC" points="102,259.3086,183.6406,259.3086,195.6406,271.3086,183.6406,283.3086,102,283.3086,90,271.3086,102,259.3086" style="stroke:#B7791F;stroke-width:1;stroke-linejoin:miter;stroke-miterlimit:10;"/><text fill="#000000" font-family="sans-serif" font-size="11" lengthAdjust="spacing" textLength="81.6406" x="102" y="275.4658">&#36716;&#21521;&#19982;&#33539;&#22260;&#27491;&#24120;?</text><text fill="#000000" font-family="sans-serif" font-size="11" lengthAdjust="spacing" textLength="11" x="79" y="268.9883">&#26159;</text><text fill="#000000" font-family="sans-serif" font-size="11" lengthAdjust="spacing" textLength="11" x="195.6406" y="268.9883">&#21542;</text><rect fill="#F8FAFC" height="34.1328" rx="4" ry="4" style="stroke:#24528C;stroke-width:1;" width="128" x="16" y="293.3086"/><text fill="#000000" font-family="sans-serif" font-size="12" lengthAdjust="spacing" textLength="108" x="26" y="314.9102">&#26029;&#30005;&#24182;&#37325;&#26032;&#23433;&#35013;&#26426;&#26500;</text><rect fill="#F8FAFC" height="34.1328" rx="4" ry="4" style="stroke:#24528C;stroke-width:1;" width="68" x="171.6406" y="293.3086"/><text fill="#000000" font-family="sans-serif" font-size="12" lengthAdjust="spacing" textLength="48" x="181.6406" y="314.9102">&#26029;&#30005;&#25490;&#26597;</text><ellipse cx="205.6406" cy="358.4414" fill="none" rx="11" ry="11" style="stroke:#000000;stroke-width:1;"/><ellipse cx="205.6406" cy="358.4414" fill="#FFFFFF" rx="6" ry="6" style="stroke:#000000;stroke-width:1;"/><rect fill="#F8FAFC" height="34.1328" rx="4" ry="4" style="stroke:#24528C;stroke-width:1;" width="131.2988" x="77.1709" y="389.4414"/><text fill="#000000" font-family="sans-serif" font-size="12" lengthAdjust="spacing" textLength="111.2988" x="87.1709" y="411.043">&#26631;&#23450; blocked_angle</text><rect fill="#F8FAFC" height="34.1328" rx="4" ry="4" style="stroke:#24528C;stroke-width:1;" width="134.2402" x="75.7002" y="443.5742"/><text fill="#000000" font-family="sans-serif" font-size="12" lengthAdjust="spacing" textLength="114.2402" x="85.7002" y="465.1758">&#26631;&#23450; released_angle</text><rect fill="#F8FAFC" height="34.1328" rx="4" ry="4" style="stroke:#24528C;stroke-width:1;" width="142.3438" x="71.6484" y="497.707"/><text fill="#000000" font-family="sans-serif" font-size="12" lengthAdjust="spacing" textLength="122.3438" x="81.6484" y="519.3086">&#29420;&#31435; SetBool &#26381;&#21153;&#26816;&#26597;</text><polygon fill="#FFF4CC" points="91,551.8398,194.6406,551.8398,206.6406,563.8398,194.6406,575.8398,91,575.8398,79,563.8398,91,551.8398" style="stroke:#B7791F;stroke-width:1;stroke-linejoin:miter;stroke-miterlimit:10;"/><text fill="#000000" font-family="sans-serif" font-size="11" lengthAdjust="spacing" textLength="103.6406" x="91" y="567.9971">&#26080;&#21345;&#28382;&#12289;&#39030;&#27515;&#25110;&#21387;&#38477;?</text><text fill="#000000" font-family="sans-serif" font-size="11" lengthAdjust="spacing" textLength="11" x="68" y="561.5195">&#26159;</text><text fill="#000000" font-family="sans-serif" font-size="11" lengthAdjust="spacing" textLength="11" x="206.6406" y="561.5195">&#21542;</text><rect fill="#F8FAFC" height="34.1328" rx="4" ry="4" style="stroke:#24528C;stroke-width:1;" width="116" x="11" y="585.8398"/><text fill="#000000" font-family="sans-serif" font-size="12" lengthAdjust="spacing" textLength="96" x="21" y="607.4414">&#25286;&#26728;&#24102;&#36733;&#21488;&#26550;&#26816;&#26597;</text><rect fill="#F8FAFC" height="34.1328" rx="4" ry="4" style="stroke:#24528C;stroke-width:1;" width="128" x="152.6406" y="585.8398"/><text fill="#000000" font-family="sans-serif" font-size="12" lengthAdjust="spacing" textLength="108" x="162.6406" y="607.4414">&#26029;&#30005;&#26816;&#26597;&#26426;&#26800;&#19982;&#20379;&#30005;</text><polygon fill="#FFF4CC" points="142.8203,625.9727,154.8203,637.9727,142.8203,649.9727,130.8203,637.9727,142.8203,625.9727" style="stroke:#B7791F;stroke-width:1;stroke-linejoin:miter;stroke-miterlimit:10;"/><ellipse cx="142.8203" cy="680.9727" fill="none" rx="11" ry="11" style="stroke:#000000;stroke-width:1;"/><ellipse cx="142.8203" cy="680.9727" fill="#FFFFFF" rx="6" ry="6" style="stroke:#000000;stroke-width:1;"/><line style="stroke:#4B5563;stroke-width:1;" x1="142.8203" x2="142.8203" y1="76.9102" y2="96.9102"/><polygon fill="#4B5563" points="138.8203,86.9102,142.8203,96.9102,146.8203,86.9102,142.8203,90.9102" style="stroke:#4B5563;stroke-width:1;stroke-linejoin:miter;stroke-miterlimit:10;"/><line style="stroke:#4B5563;stroke-width:1;" x1="142.8203" x2="142.8203" y1="131.043" y2="151.043"/><polygon fill="#4B5563" points="138.8203,141.043,142.8203,151.043,146.8203,141.043,142.8203,145.043" style="stroke:#4B5563;stroke-width:1;stroke-linejoin:miter;stroke-miterlimit:10;"/><line style="stroke:#4B5563;stroke-width:1;" x1="142.8203" x2="142.8203" y1="185.1758" y2="205.1758"/><polygon fill="#4B5563" points="138.8203,195.1758,142.8203,205.1758,146.8203,195.1758,142.8203,199.1758" style="stroke:#4B5563;stroke-width:1;stroke-linejoin:miter;stroke-miterlimit:10;"/><line style="stroke:#4B5563;stroke-width:1;" x1="205.6406" x2="205.6406" y1="327.4414" y2="347.4414"/><polygon fill="#4B5563" points="201.6406,337.4414,205.6406,347.4414,209.6406,337.4414,205.6406,341.4414" style="stroke:#4B5563;stroke-width:1;stroke-linejoin:miter;stroke-miterlimit:10;"/><line style="stroke:#4B5563;stroke-width:1;" x1="90" x2="80" y1="271.3086" y2="271.3086"/><line style="stroke:#4B5563;stroke-width:1;" x1="80" x2="80" y1="271.3086" y2="293.3086"/><polygon fill="#4B5563" points="76,283.3086,80,293.3086,84,283.3086,80,287.3086" style="stroke:#4B5563;stroke-width:1;stroke-linejoin:miter;stroke-miterlimit:10;"/><line style="stroke:#4B5563;stroke-width:1;" x1="195.6406" x2="205.6406" y1="271.3086" y2="271.3086"/><line style="stroke:#4B5563;stroke-width:1;" x1="205.6406" x2="205.6406" y1="271.3086" y2="293.3086"/><polygon fill="#4B5563" points="201.6406,283.3086,205.6406,293.3086,209.6406,283.3086,205.6406,287.3086" style="stroke:#4B5563;stroke-width:1;stroke-linejoin:miter;stroke-miterlimit:10;"/><line style="stroke:#4B5563;stroke-width:1;" x1="80" x2="80" y1="327.4414" y2="374.4414"/><line style="stroke:#4B5563;stroke-width:1;" x1="80" x2="142.8203" y1="374.4414" y2="374.4414"/><line style="stroke:#4B5563;stroke-width:1;" x1="142.8203" x2="142.8203" y1="374.4414" y2="389.4414"/><polygon fill="#4B5563" points="138.8203,379.4414,142.8203,389.4414,146.8203,379.4414,142.8203,383.4414" style="stroke:#4B5563;stroke-width:1;stroke-linejoin:miter;stroke-miterlimit:10;"/><line style="stroke:#4B5563;stroke-width:1;" x1="142.8203" x2="142.8203" y1="239.3086" y2="259.3086"/><polygon fill="#4B5563" points="138.8203,249.3086,142.8203,259.3086,146.8203,249.3086,142.8203,253.3086" style="stroke:#4B5563;stroke-width:1;stroke-linejoin:miter;stroke-miterlimit:10;"/><line style="stroke:#4B5563;stroke-width:1;" x1="142.8203" x2="142.8203" y1="423.5742" y2="443.5742"/><polygon fill="#4B5563" points="138.8203,433.5742,142.8203,443.5742,146.8203,433.5742,142.8203,437.5742" style="stroke:#4B5563;stroke-width:1;stroke-linejoin:miter;stroke-miterlimit:10;"/><line style="stroke:#4B5563;stroke-width:1;" x1="142.8203" x2="142.8203" y1="477.707" y2="497.707"/><polygon fill="#4B5563" points="138.8203,487.707,142.8203,497.707,146.8203,487.707,142.8203,491.707" style="stroke:#4B5563;stroke-width:1;stroke-linejoin:miter;stroke-miterlimit:10;"/><line style="stroke:#4B5563;stroke-width:1;" x1="79" x2="69" y1="563.8398" y2="563.8398"/><line style="stroke:#4B5563;stroke-width:1;" x1="69" x2="69" y1="563.8398" y2="585.8398"/><polygon fill="#4B5563" points="65,575.8398,69,585.8398,73,575.8398,69,579.8398" style="stroke:#4B5563;stroke-width:1;stroke-linejoin:miter;stroke-miterlimit:10;"/><line style="stroke:#4B5563;stroke-width:1;" x1="206.6406" x2="216.6406" y1="563.8398" y2="563.8398"/><line style="stroke:#4B5563;stroke-width:1;" x1="216.6406" x2="216.6406" y1="563.8398" y2="585.8398"/><polygon fill="#4B5563" points="212.6406,575.8398,216.6406,585.8398,220.6406,575.8398,216.6406,579.8398" style="stroke:#4B5563;stroke-width:1;stroke-linejoin:miter;stroke-miterlimit:10;"/><line style="stroke:#4B5563;stroke-width:1;" x1="69" x2="69" y1="619.9727" y2="637.9727"/><line style="stroke:#4B5563;stroke-width:1;" x1="69" x2="130.8203" y1="637.9727" y2="637.9727"/><polygon fill="#4B5563" points="120.8203,633.9727,130.8203,637.9727,120.8203,641.9727,124.8203,637.9727" style="stroke:#4B5563;stroke-width:1;stroke-linejoin:miter;stroke-miterlimit:10;"/><line style="stroke:#4B5563;stroke-width:1;" x1="216.6406" x2="216.6406" y1="619.9727" y2="637.9727"/><line style="stroke:#4B5563;stroke-width:1;" x1="216.6406" x2="154.8203" y1="637.9727" y2="637.9727"/><polygon fill="#4B5563" points="164.8203,633.9727,154.8203,637.9727,164.8203,641.9727,160.8203,637.9727" style="stroke:#4B5563;stroke-width:1;stroke-linejoin:miter;stroke-miterlimit:10;"/><line style="stroke:#4B5563;stroke-width:1;" x1="142.8203" x2="142.8203" y1="531.8398" y2="551.8398"/><polygon fill="#4B5563" points="138.8203,541.8398,142.8203,551.8398,146.8203,541.8398,142.8203,545.8398" style="stroke:#4B5563;stroke-width:1;stroke-linejoin:miter;stroke-miterlimit:10;"/><line style="stroke:#4B5563;stroke-width:1;" x1="142.8203" x2="142.8203" y1="649.9727" y2="669.9727"/><polygon fill="#4B5563" points="138.8203,659.9727,142.8203,669.9727,146.8203,659.9727,142.8203,663.9727" style="stroke:#4B5563;stroke-width:1;stroke-linejoin:miter;stroke-miterlimit:10;"/><?plantuml-src VL91Rn916BtlhnZJ2prQmI9xC0MpHo_y03Db1xfXcI6pKnjlL5jfsTAYCIZI88XjI2oKWv2jbFuPTuRTV-70ejbOuctoVU-zUU_DF60xg810qOG6LgoyWOkGmWBOXfbyZf9ThAU8IIXW569BhX1c8PIr0tMoP-0So4BJGg7DWfeX52CAug6vZh9mrsGQmUmvbFUcfMmQKICRmcnHIlQ2QzUYoLZiyQFG4cQOyT9WhvB_65pJujgMbbg595H7T8dQYCOsugjGpmnO85Y_BwjfqTJ_267rvERcauUQmWnc8k0TZSJvJpuuveSzqIxpmMSnsf_rRCLYa38b8UfzVblokoslSy8hFLvf_Yhj2_kjwFJaWLSTrx7TsxPS-Oq3Tp9M9QLR4byktBlcxCD8Ohp17VzMdX-crnBWDshkjEewfr9P0iInBGOZoVAwpjBBy4pqBsQlRwIcgXXP4F6cLxpsJbAyapUy-KFqkznndgu3-IamY8XFr-iA08b0Zz-C_N9Lr8SoajSzb7gYTQ0gI3uyYF3QPGWgJjzBdweSM8mK5OHr-S29e0ImRP9C7kal8CwPIFqxfiX4q0hDP_RLxBiDqeWb2J61EA_oIYTe830lFhPvjICcBTc0tncB_aGSrVcfxJUgzoCiUkNEfJUTyhEXQ8t_AAtqlzZD4tuTodA2mjLbZdcatm00?></g></svg>