<svg xmlns="http://www.w3.org/2000/svg" xmlns:xlink="http://www.w3.org/1999/xlink" contentStyleType="text/css" data-diagram-type="STATE" height="539px" preserveAspectRatio="none" style="width:657px;height:539px;" version="1.1" viewBox="0 0 657 539" width="657px" zoomAndPan="magnify"><?plantuml 1.2026.6?><defs/><g><g class="title" data-source-line="9"><text fill="#000000" font-family="sans-serif" font-size="22" font-weight="700" lengthAdjust="spacing" textLength="344.2764" x="155.5768" y="36.2695">&#31034;&#20363; 11&#65306;&#25237;&#25918;&#26426;&#26500;&#21333;&#27425;&#21160;&#20316;&#29366;&#24577;&#26426;</text></g><g class="start_entity" data-qualified-name=".start." data-source-line="10" id="ent0001"><ellipse cx="357.93" cy="67.9102" fill="#FFFFFF" rx="10" ry="10" style="stroke:#000000;stroke-width:1;"/></g><g class="entity" data-qualified-name="IDLE" data-source-line="10" id="ent0002"><rect fill="#F8FAFC" height="50" rx="4" ry="4" style="stroke:#24528C;stroke-width:1;" width="50" x="332.93" y="138.9102"/><line style="stroke:#24528C;stroke-width:1;" x1="332.93" x2="382.93" y1="165.3984" y2="165.3984"/><text fill="#000000" font-family="sans-serif" font-size="14" lengthAdjust="spacing" textLength="29.5723" x="343.1439" y="157.4453">IDLE</text></g><g class="entity" data-qualified-name="RUNNING" data-source-line="11" id="ent0004"><rect fill="#F8FAFC" height="50" rx="4" ry="4" style="stroke:#24528C;stroke-width:1;" width="83.7314" x="133.06" y="265.9102"/><line style="stroke:#24528C;stroke-width:1;" x1="133.06" x2="216.7914" y1="292.3984" y2="292.3984"/><text fill="#000000" font-family="sans-serif" font-size="14" lengthAdjust="spacing" textLength="63.7314" x="143.06" y="284.4453">RUNNING</text></g><g class="entity" data-qualified-name="COMPLETE" data-source-line="12" id="ent0006"><rect fill="#F8FAFC" height="50" rx="4" ry="4" style="stroke:#24528C;stroke-width:1;" width="91.8525" x="12" y="392.9102"/><line style="stroke:#24528C;stroke-width:1;" x1="12" x2="103.8525" y1="419.3984" y2="419.3984"/><text fill="#000000" font-family="sans-serif" font-size="14" lengthAdjust="spacing" textLength="71.8525" x="22" y="411.4453">COMPLETE</text></g><g class="entity" data-qualified-name="ABORT" data-source-line="13" id="ent0008"><rect fill="#F8FAFC" height="50" rx="4" ry="4" style="stroke:#24528C;stroke-width:1;" width="66.293" x="259.78" y="392.9102"/><line style="stroke:#24528C;stroke-width:1;" x1="259.78" x2="326.073" y1="419.3984" y2="419.3984"/><text fill="#000000" font-family="sans-serif" font-size="14" lengthAdjust="spacing" textLength="46.293" x="269.78" y="411.4453">ABORT</text></g><g class="end_entity" data-qualified-name=".end." data-source-line="14" id="ent0010"><ellipse cx="174.93" cy="514.9102" fill="none" rx="11" ry="11" style="stroke:#000000;stroke-width:1;"/><ellipse cx="174.93" cy="514.9102" fill="#FFFFFF" rx="6" ry="6" style="stroke:#000000;stroke-width:1;"/></g><g class="entity" data-qualified-name="GMN15" data-source-line="19" id="ent0016"><path d="M251.57,274.6002 L251.57,286.9102 L217.06,290.9102 L251.57,294.9102 L251.57,307.2213 A4,4 0 0 0 255.57,311.2213 L400.2839,311.2213 A4,4 0 0 0 404.2839,307.2213 L404.2839,280.6002 L394.2839,270.6002 L255.57,270.6002 A4,4 0 0 0 251.57,274.6002" fill="#FFFFFF" style="stroke:#000000;stroke-width:1;"/><path d="M394.2839,270.6002 L394.2839,278.6002 A2,2 0 0 0 396.2839,280.6002 L404.2839,280.6002 L394.2839,270.6002" fill="#FFFFFF" style="stroke:#000000;stroke-width:1;"/><text fill="#000000" font-family="sans-serif" font-size="13" lengthAdjust="spacing" textLength="127.6196" x="257.57" y="288.1685">released=true&#65306;&#37322;&#25918;</text><text fill="#000000" font-family="sans-serif" font-size="13" lengthAdjust="spacing" textLength="131.7139" x="257.57" y="303.4791">released=false&#65306;&#38459;&#25377;</text></g><g class="entity" data-qualified-name="GMN18" data-source-line="22" id="ent0019"><path d="M439.43,282.2502 L439.43,299.5607 A4,4 0 0 0 443.43,303.5607 L638.43,303.5607 A4,4 0 0 0 642.43,299.5607 L642.43,288.2502 L632.43,278.2502 L527.38,278.2502 L383.37,182.2902 L519.38,278.2502 L443.43,278.2502 A4,4 0 0 0 439.43,282.2502" fill="#FFFFFF" style="stroke:#000000;stroke-width:1;"/><path d="M632.43,278.2502 L632.43,286.2502 A2,2 0 0 0 634.43,288.2502 L642.43,288.2502 L632.43,278.2502" fill="#FFFFFF" style="stroke:#000000;stroke-width:1;"/><text fill="#000000" font-family="sans-serif" font-size="13" lengthAdjust="spacing" textLength="182" x="445.43" y="295.8185">&#25286;&#26728;&#12289;&#26029;&#24320;&#39134;&#34892;&#21160;&#21147;&#12289;&#22320;&#38754;&#21488;&#26550;</text></g><!--link *start* to IDLE--><g class="link" data-entity-1="ent0001" data-entity-2="ent0002" data-link-type="dependency" data-source-line="10" id="lnk3"><path d="M357.93,78.2702 C357.93,92.2002 357.93,113.8602 357.93,133.5602" fill="none" id="*start*-to-IDLE" style="stroke:#4B5563;stroke-width:1;"/><polygon fill="#4B5563" points="357.93,138.5602,361.93,129.5602,357.93,133.5602,353.93,129.5602,357.93,138.5602" style="stroke:#4B5563;stroke-width:1;stroke-linejoin:miter;stroke-miterlimit:10;"/></g><!--link IDLE to RUNNING--><g class="link" data-entity-1="ent0002" data-entity-2="ent0004" data-link-type="dependency" data-source-line="11" id="lnk5"><path d="M332.48,182.2902 C300.76,203.9602 250.4888,238.3 214.6488,262.78" fill="none" id="IDLE-to-RUNNING" style="stroke:#4B5563;stroke-width:1;"/><polygon fill="#4B5563" points="210.52,265.6002,220.2079,263.827,214.6488,262.78,215.6957,257.2209,210.52,265.6002" style="stroke:#4B5563;stroke-width:1;stroke-linejoin:miter;stroke-miterlimit:10;"/><g data-visibility-modifier="PACKAGE_PRIVATE_METHOD"><polygon fill="none" points="283.38,224.0654,279.38,230.0654,287.38,230.0654" style="stroke:#000000;stroke-width:1;stroke-linejoin:miter;stroke-miterlimit:10;"/></g><text fill="#000000" font-family="sans-serif" font-size="13" lengthAdjust="spacing" textLength="28.8501" x="290.38" y="232.4785">start</text></g><!--link RUNNING to COMPLETE--><g class="link" data-entity-1="ent0004" data-entity-2="ent0006" data-link-type="dependency" data-source-line="12" id="lnk7"><path d="M132.56,302.4902 C109.44,310.5202 82.44,324.0202 66.93,345.9102 C57.44,359.2902 55.2856,372.7506 55.4756,387.4906" fill="none" id="RUNNING-to-COMPLETE" style="stroke:#4B5563;stroke-width:1;"/><polygon fill="#4B5563" points="55.54,392.4902,59.4237,383.4393,55.4756,387.4906,51.4243,383.5425,55.54,392.4902" style="stroke:#4B5563;stroke-width:1;stroke-linejoin:miter;stroke-miterlimit:10;"/><text fill="#000000" font-family="sans-serif" font-size="13" lengthAdjust="spacing" textLength="177.9692" x="67.93" y="359.4785">SetBool &#25104;&#21151;&#19988; command_ok</text></g><!--link RUNNING to ABORT--><g class="link" data-entity-1="ent0004" data-entity-2="ent0008" data-link-type="dependency" data-source-line="13" id="lnk9"><path d="M215.11,316.3802 C227.14,324.8202 239.8,334.9502 249.93,345.9102 C262.73,359.7802 271.3606,373.6259 279.0106,388.1559" fill="none" id="RUNNING-to-ABORT" style="stroke:#4B5563;stroke-width:1;"/><polygon fill="#4B5563" points="281.34,392.5802,280.6866,382.753,279.0106,388.1559,273.6077,386.48,281.34,392.5802" style="stroke:#4B5563;stroke-width:1;stroke-linejoin:miter;stroke-miterlimit:10;"/><text fill="#000000" font-family="sans-serif" font-size="13" lengthAdjust="spacing" textLength="130" x="263.69" y="359.4785">&#20018;&#21475;&#12289;&#38480;&#20301;&#25110;&#26381;&#21153;&#22833;&#36133;</text></g><!--link COMPLETE to *end*--><g class="link" data-entity-1="ent0006" data-entity-2="ent0010" data-link-type="dependency" data-source-line="14" id="lnk11"><path d="M88.06,443.3702 C114.33,464.7102 146.7896,491.057 162.8496,504.107" fill="none" id="COMPLETE-to-*end*" style="stroke:#4B5563;stroke-width:1;"/><polygon fill="#4B5563" points="166.73,507.2602,162.2678,498.4802,162.8496,504.107,157.2227,504.6888,166.73,507.2602" style="stroke:#4B5563;stroke-width:1;stroke-linejoin:miter;stroke-miterlimit:10;"/></g><!--link ABORT to *end*--><g class="link" data-entity-1="ent0008" data-entity-2="ent0010" data-link-type="dependency" data-source-line="15" id="lnk12"><path d="M262.54,443.3702 C236.04,464.7102 203.2838,491.0735 187.0838,504.1235" fill="none" id="ABORT-to-*end*" style="stroke:#4B5563;stroke-width:1;"/><polygon fill="#4B5563" points="183.19,507.2602,192.7081,504.7292,187.0838,504.1235,187.6895,498.4992,183.19,507.2602" style="stroke:#4B5563;stroke-width:1;stroke-linejoin:miter;stroke-miterlimit:10;"/></g><!--link IDLE to IDLE--><g class="link" data-entity-1="ent0002" data-entity-2="ent0002" data-link-type="dependency" data-source-line="16" id="lnk13"><path d="M383.2,154.5202 C400.7,151.6702 417.93,154.8002 417.93,163.9102 C417.93,173.0202 405.635,176.9539 388.135,174.1039" fill="none" id="IDLE-to-IDLE" style="stroke:#4B5563;stroke-width:1;"/><polygon fill="#4B5563" points="383.2,173.3002,391.44,178.6948,388.135,174.1039,392.7259,170.7988,383.2,173.3002" style="stroke:#4B5563;stroke-width:1;stroke-linejoin:miter;stroke-miterlimit:10;"/><text fill="#000000" font-family="sans-serif" font-size="13" lengthAdjust="spacing" textLength="123.9126" x="423.93" y="168.9785">launch &#21518;&#20445;&#25345;&#26080;&#21160;&#20316;</text></g><!--link COMPLETE to COMPLETE--><g class="link" data-entity-1="ent0006" data-entity-2="ent0006" data-link-type="dependency" data-source-line="17" id="lnk14"><path d="M104.09,407.5802 C122.95,406.9302 138.85,410.3802 138.85,417.9102 C138.85,425.4402 127.947,429.0624 109.087,428.4124" fill="none" id="COMPLETE-to-COMPLETE" style="stroke:#B91C1C;stroke-width:1;stroke-dasharray:7,7;"/><polygon fill="#B91C1C" points="104.09,428.2402,112.9469,432.5478,109.087,428.4124,113.2224,424.5525,104.09,428.2402" style="stroke:#B91C1C;stroke-width:1;stroke-linejoin:miter;stroke-miterlimit:10;"/><text fill="#000000" font-family="sans-serif" font-size="13" lengthAdjust="spacing" textLength="91" x="144.85" y="422.9785">&#37325;&#22797;&#21160;&#20316;&#34987;&#25298;&#32477;</text></g><?plantuml-src PL9RQnD157xVNp6IDx4FgOt4Wa9sJQHGKsdgKoaopKwoItPdoko4laa2OiicsmPfwos9RXkXe48LAQKtVumxa-oJVy7PR5Es-ZBCdEzybtEOMyn0DW9h5ZInujHCl0OfjC4gBDUgbDInhX6BKC0en8w446Q9BiU0EbatSHLKeEMW13AcbWd5Y89iegwZ2gnRh40mAqBfMvAo9KJDIg8dHobPZsrJCsecS-zkqf91XjH_qgKAsKAkeFtNHgYEw5NBz4ncEgifp6GM0iF1QN3P0kdqd_FtmjqLEvUYUohwBxctAxxwt3qCBhf3zrWqchAkBDzU0LDJ3y7Se_cy4XtZr-ApOd6k-1ZCWXVIZJ9bKeX0RU79q_dyKbwY9SHKGYmWDZlS_HYSx80oiMs8zUUaTeEJKnSMboGXEFd1jmz-DvhXkqvmuOdDFT7rkElpmVVHpy_AjNJ4aT6Kc3TvNUSRNsQ11UkuR03UsGf-zKIxATvyYkTB22sdrFjfBQtTqQ5Z87tbvW3XXiS7NamQxNyHhTV3ivw22KE0cbM30LAPB4C1W28BGGVf3nYj8xdUSCELwqq2uxyI8M_FHDjN4DP191OhhXB6Y1r9NkKNhLV2FvJR47lV-7aZFEYF_BOCmzqFiiYxHs5ldsyVYVxnNm00?></g></svg>