<svg xmlns="http://www.w3.org/2000/svg" xmlns:xlink="http://www.w3.org/1999/xlink" contentStyleType="text/css" data-diagram-type="STATE" height="258px" preserveAspectRatio="none" style="width:1665px;height:258px;background:#F4F6F8;" version="1.1" viewBox="0 0 1665 258" width="1665px" zoomAndPan="magnify"><?plantuml 1.2026.6?><defs/><g><rect fill="#F4F6F8" height="258" style="stroke:none;stroke-width:1;" width="1665" x="0" y="0"/><g class="title" data-source-line="10"><text fill="#000000" font-family="sans-serif" font-size="22" font-weight="700" lengthAdjust="spacing" textLength="256.2764" x="703.4118" y="36.2695">&#31034;&#20363; 07&#65306;&#30456;&#23545;&#20301;&#31227;&#29366;&#24577;&#26426;</text></g><g class="start_entity" data-qualified-name=".start." data-source-line="11" id="ent0001"><ellipse cx="21" cy="219.9102" fill="#FFFFFF" rx="10" ry="10" style="stroke:#000000;stroke-width:1;"/></g><g class="entity" data-qualified-name="IDLE" data-source-line="11" id="ent0002"><rect fill="#FFFFFF" height="50" rx="4" ry="4" style="stroke:#24528C;stroke-width:1;" width="50" x="92" y="194.9102"/><line style="stroke:#24528C;stroke-width:1;" x1="92" x2="142" y1="221.3984" y2="221.3984"/><text fill="#000000" font-family="sans-serif" font-size="14" lengthAdjust="spacing" textLength="29.5723" x="102.2139" y="213.4453">IDLE</text></g><g class="entity" data-qualified-name="TAKEOFF" data-source-line="12" id="ent0004"><rect fill="#FFFFFF" height="50" rx="4" ry="4" style="stroke:#24528C;stroke-width:1;" width="81.127" x="354" y="194.9102"/><line style="stroke:#24528C;stroke-width:1;" x1="354" x2="435.127" y1="221.3984" y2="221.3984"/><text fill="#000000" font-family="sans-serif" font-size="14" lengthAdjust="spacing" textLength="61.127" x="364" y="213.4453">TAKEOFF</text></g><g class="entity" data-qualified-name="MOVE" data-source-line="13" id="ent0006"><rect fill="#FFFFFF" height="50" rx="4" ry="4" style="stroke:#24528C;stroke-width:1;" width="59.6758" x="575.13" y="135.9102"/><line style="stroke:#24528C;stroke-width:1;" x1="575.13" x2="634.8058" y1="162.3984" y2="162.3984"/><text fill="#000000" font-family="sans-serif" font-size="14" lengthAdjust="spacing" textLength="39.6758" x="585.13" y="154.4453">MOVE</text></g><g class="entity" data-qualified-name="RETURN" data-source-line="14" id="ent0008"><rect fill="#FFFFFF" height="50" rx="4" ry="4" style="stroke:#24528C;stroke-width:1;" width="74.1885" x="825.21" y="58.9102"/><line style="stroke:#24528C;stroke-width:1;" x1="825.21" x2="899.3985" y1="85.3984" y2="85.3984"/><text fill="#000000" font-family="sans-serif" font-size="14" lengthAdjust="spacing" textLength="54.1885" x="835.21" y="77.4453">RETURN</text></g><g class="entity" data-qualified-name="LANDING" data-source-line="15" id="ent0010"><rect fill="#FFFFFF" height="50" rx="4" ry="4" style="stroke:#24528C;stroke-width:1;" width="82.4463" x="1279.8" y="84.9102"/><line style="stroke:#24528C;stroke-width:1;" x1="1279.8" x2="1362.2463" y1="111.3984" y2="111.3984"/><text fill="#000000" font-family="sans-serif" font-size="14" lengthAdjust="spacing" textLength="62.4463" x="1289.8" y="103.4453">LANDING</text></g><g class="entity" data-qualified-name="COMPLETE" data-source-line="16" id="ent0012"><rect fill="#FFFFFF" height="50" rx="4" ry="4" style="stroke:#24528C;stroke-width:1;" width="91.8525" x="1476.25" y="84.9102"/><line style="stroke:#24528C;stroke-width:1;" x1="1476.25" x2="1568.1025" y1="111.3984" y2="111.3984"/><text fill="#000000" font-family="sans-serif" font-size="14" lengthAdjust="spacing" textLength="71.8525" x="1486.25" y="103.4453">COMPLETE</text></g><g class="end_entity" data-qualified-name=".end." data-source-line="17" id="ent0014"><ellipse cx="1640.1" cy="109.9102" fill="none" rx="11" ry="11" style="stroke:#000000;stroke-width:1;"/><ellipse cx="1640.1" cy="109.9102" fill="#FFFFFF" rx="6" ry="6" style="stroke:#000000;stroke-width:1;"/></g><g class="entity" data-qualified-name="ABORT" data-source-line="18" id="ent0016"><rect fill="#FFFFFF" height="50" rx="4" ry="4" style="stroke:#24528C;stroke-width:1;" width="66.293" x="1092.66" y="133.9102"/><line style="stroke:#24528C;stroke-width:1;" x1="1092.66" x2="1158.953" y1="160.3984" y2="160.3984"/><text fill="#000000" font-family="sans-serif" font-size="14" lengthAdjust="spacing" textLength="46.293" x="1102.66" y="152.4453">ABORT</text></g><!--link *start* to IDLE--><g class="link" data-entity-1="ent0001" data-entity-2="ent0002" data-link-type="dependency" data-source-line="11" id="lnk3"><path d="M31.36,219.9102 C45.29,219.9102 66.95,219.9102 86.65,219.9102" fill="none" id="*start*-to-IDLE" style="stroke:#4B5563;stroke-width:1;"/><polygon fill="#4B5563" points="91.65,219.9102,82.65,215.9102,86.65,219.9102,82.65,223.9102,91.65,219.9102" style="stroke:#4B5563;stroke-width:1;stroke-linejoin:miter;stroke-miterlimit:10;"/></g><!--link IDLE to TAKEOFF--><g class="link" data-entity-1="ent0002" data-entity-2="ent0004" data-link-type="dependency" data-source-line="12" id="lnk5"><path d="M142.45,219.9102 C190.14,219.9102 290.92,219.9102 348.81,219.9102" fill="none" id="IDLE-to-TAKEOFF" style="stroke:#4B5563;stroke-width:1;"/><polygon fill="#4B5563" points="353.81,219.9102,344.81,215.9102,348.81,219.9102,344.81,223.9102,353.81,219.9102" style="stroke:#4B5563;stroke-width:1;stroke-linejoin:miter;stroke-miterlimit:10;"/><g data-visibility-modifier="PACKAGE_PRIVATE_METHOD"><polygon fill="none" points="178,208.0654,174,214.0654,182,214.0654" style="stroke:#000000;stroke-width:1;stroke-linejoin:miter;stroke-miterlimit:10;"/></g><text fill="#000000" font-family="sans-serif" font-size="13" lengthAdjust="spacing" textLength="138.4106" x="185" y="216.4785">start + &#35760;&#24405;&#36215;&#28857;&#19982;&#33322;&#21521;</text></g><!--link TAKEOFF to MOVE--><g class="link" data-entity-1="ent0004" data-entity-2="ent0006" data-link-type="dependency" data-source-line="13" id="lnk7"><path d="M435.25,208.6702 C476,197.1402 533.6189,180.8215 570.0189,170.5215" fill="none" id="TAKEOFF-to-MOVE" style="stroke:#4B5563;stroke-width:1;"/><polygon fill="#4B5563" points="574.83,169.1602,565.0809,167.7618,570.0189,170.5215,567.2591,175.4595,574.83,169.1602" style="stroke:#4B5563;stroke-width:1;stroke-linejoin:miter;stroke-miterlimit:10;"/><text fill="#000000" font-family="sans-serif" font-size="13" lengthAdjust="spacing" textLength="78" x="466.13" y="174.9085">&#21040;&#36798;&#23433;&#20840;&#39640;&#24230;</text></g><!--link MOVE to RETURN--><g class="link" data-entity-1="ent0006" data-entity-2="ent0008" data-link-type="dependency" data-source-line="14" id="lnk9"><path d="M635.22,146.8602 C644.55,142.6902 654.99,138.3202 664.8,134.9102 C719.56,115.8502 780.1961,101.3016 820.0361,92.5616" fill="none" id="MOVE-to-RETURN" style="stroke:#4B5563;stroke-width:1;"/><polygon fill="#4B5563" points="824.92,91.4902,815.2719,89.5116,820.0361,92.5616,816.9862,97.3258,824.92,91.4902" style="stroke:#4B5563;stroke-width:1;stroke-linejoin:miter;stroke-miterlimit:10;"/><text fill="#000000" font-family="sans-serif" font-size="13" lengthAdjust="spacing" textLength="78" x="679.8" y="100.7085">&#21040;&#36798;&#21069;&#21521;&#30446;&#26631;</text></g><!--link RETURN to LANDING--><g class="link" data-entity-1="ent0008" data-entity-2="ent0010" data-link-type="dependency" data-source-line="15" id="lnk11"><path d="M899.87,83.1302 C938.62,82.5302 1001.56,82.2102 1055.8,84.9102 C1135.19,88.8602 1222.5942,98.2565 1274.4042,104.3465" fill="none" id="RETURN-to-LANDING" style="stroke:#4B5563;stroke-width:1;"/><polygon fill="#4B5563" points="1279.37,104.9302,1270.8985,99.9068,1274.4042,104.3465,1269.9646,107.8521,1279.37,104.9302" style="stroke:#4B5563;stroke-width:1;stroke-linejoin:miter;stroke-miterlimit:10;"/><text fill="#000000" font-family="sans-serif" font-size="13" lengthAdjust="spacing" textLength="78" x="1086.8" y="83.3385">&#36820;&#22238;&#36215;&#28857;&#19978;&#26041;</text></g><!--link LANDING to COMPLETE--><g class="link" data-entity-1="ent0010" data-entity-2="ent0012" data-link-type="dependency" data-source-line="16" id="lnk13"><path d="M1362.33,109.9102 C1395.29,109.9102 1436.87,109.9102 1471.07,109.9102" fill="none" id="LANDING-to-COMPLETE" style="stroke:#4B5563;stroke-width:1;"/><polygon fill="#4B5563" points="1476.07,109.9102,1467.07,105.9102,1471.07,109.9102,1467.07,113.9102,1476.07,109.9102" style="stroke:#4B5563;stroke-width:1;stroke-linejoin:miter;stroke-miterlimit:10;"/><text fill="#000000" font-family="sans-serif" font-size="13" lengthAdjust="spacing" textLength="52" x="1393.25" y="106.4785">&#30830;&#35748;&#33853;&#22320;</text></g><!--link COMPLETE to *end*--><g class="link" data-entity-1="ent0012" data-entity-2="ent0014" data-link-type="dependency" data-source-line="17" id="lnk15"><path d="M1568.33,109.9102 C1590.45,109.9102 1610.2,109.9102 1623.78,109.9102" fill="none" id="COMPLETE-to-*end*" style="stroke:#4B5563;stroke-width:1;"/><polygon fill="#4B5563" points="1628.78,109.9102,1619.78,105.9102,1623.78,109.9102,1619.78,113.9102,1628.78,109.9102" style="stroke:#4B5563;stroke-width:1;stroke-linejoin:miter;stroke-miterlimit:10;"/></g><!--link TAKEOFF to ABORT--><g class="link" data-entity-1="ent0004" data-entity-2="ent0016" data-link-type="dependency" data-source-line="18" id="lnk17"><path d="M435.37,217.2302 C482.85,214.0002 564.64,208.3202 634.8,202.9102 C822,188.4802 869.11,187.8402 1055.8,167.9102 C1067.69,166.6402 1075.7537,165.6701 1087.2437,164.1401" fill="none" id="TAKEOFF-to-ABORT" style="stroke:#4B5563;stroke-width:1;"/><polygon fill="#4B5563" points="1092.2,163.4802,1082.7508,160.7031,1087.2437,164.1401,1083.8067,168.6331,1092.2,163.4802" style="stroke:#4B5563;stroke-width:1;stroke-linejoin:miter;stroke-miterlimit:10;"/><g data-visibility-modifier="PACKAGE_PRIVATE_METHOD"><polygon fill="none" points="670.8,181.1154,666.8,187.1154,674.8,187.1154" style="stroke:#000000;stroke-width:1;stroke-linejoin:miter;stroke-miterlimit:10;"/></g><text fill="#000000" font-family="sans-serif" font-size="13" lengthAdjust="spacing" textLength="94.7007" x="677.8" y="189.5285">stop / &#25968;&#25454;&#24322;&#24120;</text></g><!--link MOVE to ABORT--><g class="link" data-entity-1="ent0006" data-entity-2="ent0016" data-link-type="dependency" data-source-line="19" id="lnk18"><path d="M634.97,160.8002 C724.82,160.4502 993.09,159.4198 1087.4,159.0498" fill="none" id="MOVE-to-ABORT" style="stroke:#4B5563;stroke-width:1;"/><polygon fill="#4B5563" points="1092.4,159.0302,1083.3844,155.0655,1087.4,159.0498,1083.4158,163.0654,1092.4,159.0302" style="stroke:#4B5563;stroke-width:1;stroke-linejoin:miter;stroke-miterlimit:10;"/><text fill="#000000" font-family="sans-serif" font-size="13" lengthAdjust="spacing" textLength="117.9648" x="803.8" y="156.2785">&#36234;&#30028; / &#36229;&#26102; / ~stop</text></g><!--link RETURN to ABORT--><g class="link" data-entity-1="ent0008" data-entity-2="ent0016" data-link-type="dependency" data-source-line="20" id="lnk19"><path d="M899.66,94.3402 C950.89,109.0302 1038.6938,134.2116 1087.6438,148.2516" fill="none" id="RETURN-to-ABORT" style="stroke:#4B5563;stroke-width:1;"/><polygon fill="#4B5563" points="1092.45,149.6302,1084.9016,143.3038,1087.6438,148.2516,1082.696,150.9938,1092.45,149.6302" style="stroke:#4B5563;stroke-width:1;stroke-linejoin:miter;stroke-miterlimit:10;"/><text fill="#000000" font-family="sans-serif" font-size="13" lengthAdjust="spacing" textLength="102.9209" x="952.8" y="106.8785">&#35823;&#24046;&#36229;&#38480; / ~stop</text></g><!--link ABORT to LANDING--><g class="link" data-entity-1="ent0016" data-entity-2="ent0010" data-link-type="dependency" data-source-line="21" id="lnk20"><path d="M1159.14,150.7102 C1192.23,142.3202 1238.8835,130.4897 1274.6735,121.4097" fill="none" id="ABORT-to-LANDING" style="stroke:#4B5563;stroke-width:1;"/><polygon fill="#4B5563" points="1279.52,120.1802,1269.8127,118.5162,1274.6735,121.4097,1271.78,126.2705,1279.52,120.1802" style="stroke:#4B5563;stroke-width:1;stroke-linejoin:miter;stroke-miterlimit:10;"/><text fill="#000000" font-family="sans-serif" font-size="13" lengthAdjust="spacing" textLength="52" x="1196.8" y="125.1485">&#35831;&#27714;&#38477;&#33853;</text></g><?plantuml-src POzFRn916CRlyobUuqtJQ2hKneC9q5tJIC5GzDBqCB83RBhT8SCqlHabQTgY64p4jj8OJHercYnua7yM_3BCxd3oApYx1RhQEKncvlazypplDLuasmHA5ZPjLDuoxH9cU1kUujnMWT4TsqXGYpAuhaVq9NqvH9IBsA2xfbs0FBRA9AG4jXnbDc4GTXWaZtSihbERfx3ANCTsUPqmCnzYOepHtMba91wDBjq9HtBCIVnAis1TmIWp29iYYv7eud82MIJFWLDWPg78mJ0PoN6JseYRt2BWdGt6evTm--wVy_TUioTQ_V6mvdtvvLKxxlCNxka0RTpOX8M5-x2wajIGlmMtREoXbjPrk0VFL3BZS1EaqnR3XlpPzIhzSU-rFFWcwc_G3FHDQ-adcdA8WxOSZOHpAFQ-JhuVYy5d52W-aj6oZpEfI-YmfZxncexxSHzDDHzBnb8hgwa7YfE_tuhcXrbgrNtNHpFH1nFfjKT9BUl7UfySwPp9-b2Sjj7ytOVKYF_qZCNJcUp5QBG4jy1jjDsQ8yuhejUxh3gZPAVgDLufJ7RstAEEEWI-SDqvscg9hgEuoKbzpbs8_qtLwhe_AfEJcghx5m00?></g></svg>