<svg xmlns="http://www.w3.org/2000/svg" xmlns:xlink="http://www.w3.org/1999/xlink" contentStyleType="text/css" data-diagram-type="SEQUENCE" height="398px" preserveAspectRatio="none" style="width:630px;height:398px;" version="1.1" viewBox="0 0 630 398" width="630px" zoomAndPan="magnify"><?plantuml 1.2026.6?><defs/><g><g class="title" data-source-line="9"><text fill="#000000" font-family="sans-serif" font-size="22" font-weight="700" lengthAdjust="spacing" textLength="322.2764" x="153.0649" y="36.2695">&#31034;&#20363; 02&#65306;&#26412;&#22320;&#20301;&#23039;&#21482;&#35835;&#26816;&#26597;&#38142;&#36335;</text></g><g class="participant-lifeline" data-entity-uid="part1" data-qualified-name="estimator" data-source-line="10" id="part1-lifeline"><g><title>PX4 estimator</title><rect fill="#000000" fill-opacity="0.00000" height="185.5527" width="8" x="68.1851" y="129.3984"/><line style="stroke:#000000;stroke-width:1;stroke-dasharray:5,5;" x1="72" x2="72" y1="129.3984" y2="314.9512"/></g></g><g class="participant-lifeline" data-entity-uid="part2" data-qualified-name="mavros" data-source-line="11" id="part2-lifeline"><g><title>MAVROS</title><rect fill="#000000" fill-opacity="0.00000" height="185.5527" width="8" x="184.4399" y="129.3984"/><line style="stroke:#000000;stroke-width:1;stroke-dasharray:5,5;" x1="188.3701" x2="188.3701" y1="129.3984" y2="314.9512"/></g></g><g class="participant-lifeline" data-entity-uid="part3" data-qualified-name="example" data-source-line="12" id="part3-lifeline"><g><title>02_local_pose</title><rect fill="#000000" fill-opacity="0.00000" height="185.5527" width="8" x="391.9697" y="129.3984"/><line style="stroke:#000000;stroke-width:1;stroke-dasharray:5,5;" x1="395.1455" x2="395.1455" y1="129.3984" y2="314.9512"/></g></g><g class="participant-lifeline" data-entity-uid="part4" data-qualified-name="operator" data-source-line="13" id="part4-lifeline"><g><title>...</title><rect fill="#000000" fill-opacity="0.00000" height="185.5527" width="8" x="591.4063" y="129.3984"/><line style="stroke:#000000;stroke-width:1;stroke-dasharray:5,5;" x1="595.4063" x2="595.4063" y1="129.3984" y2="314.9512"/></g></g><g class="participant participant-head" data-entity-uid="part1" data-qualified-name="estimator" data-source-line="10" id="part1-head"><rect fill="#F8FAFC" height="26.4883" rx="4" ry="4" style="stroke:#24528C;stroke-width:1;" width="104.3701" x="20" y="96.9102"/><text fill="#000000" font-family="sans-serif" font-size="14" lengthAdjust="spacing" textLength="94.3701" x="25" y="115.4453">PX4 estimator</text></g><g class="participant participant-tail" data-entity-uid="part1" data-qualified-name="estimator" data-source-line="10" id="part1-tail"><rect fill="#F8FAFC" height="26.4883" rx="4" ry="4" style="stroke:#24528C;stroke-width:1;" width="104.3701" x="20" y="318.9512"/><text fill="#000000" font-family="sans-serif" font-size="14" lengthAdjust="spacing" textLength="94.3701" x="25" y="337.4863">PX4 estimator</text></g><g class="participant participant-head" data-entity-uid="part2" data-qualified-name="mavros" data-source-line="11" id="part2-head"><rect fill="#F8FAFC" height="26.4883" rx="4" ry="4" style="stroke:#24528C;stroke-width:1;" width="68.1396" x="154.3701" y="96.9102"/><text fill="#000000" font-family="sans-serif" font-size="14" lengthAdjust="spacing" textLength="58.1396" x="159.3701" y="115.4453">MAVROS</text></g><g class="participant participant-tail" data-entity-uid="part2" data-qualified-name="mavros" data-source-line="11" id="part2-tail"><rect fill="#F8FAFC" height="26.4883" rx="4" ry="4" style="stroke:#24528C;stroke-width:1;" width="68.1396" x="154.3701" y="318.9512"/><text fill="#000000" font-family="sans-serif" font-size="14" lengthAdjust="spacing" textLength="58.1396" x="159.3701" y="337.4863">MAVROS</text></g><g class="participant participant-head" data-entity-uid="part3" data-qualified-name="example" data-source-line="12" id="part3-head"><rect fill="#F8FAFC" height="26.4883" rx="4" ry="4" style="stroke:#24528C;stroke-width:1;" width="105.6484" x="343.1455" y="96.9102"/><text fill="#000000" font-family="sans-serif" font-size="14" lengthAdjust="spacing" textLength="95.6484" x="348.1455" y="115.4453">02_local_pose</text></g><g class="participant participant-tail" data-entity-uid="part3" data-qualified-name="example" data-source-line="12" id="part3-tail"><rect fill="#F8FAFC" height="26.4883" rx="4" ry="4" style="stroke:#24528C;stroke-width:1;" width="105.6484" x="343.1455" y="318.9512"/><text fill="#000000" font-family="sans-serif" font-size="14" lengthAdjust="spacing" textLength="95.6484" x="348.1455" y="337.4863">02_local_pose</text></g><g class="participant participant-head" data-entity-uid="part4" data-qualified-name="operator" data-source-line="13" id="part4-head"><text fill="#000000" font-family="sans-serif" font-size="14" lengthAdjust="spacing" textLength="42" x="571.4063" y="126.4453">&#25805;&#20316;&#21592;</text><ellipse cx="595.4063" cy="60.9102" fill="#FFFFFF" rx="8" ry="8" style="stroke:#000000;stroke-width:1;"/><path d="M595.4063,68.9102 L595.4063,95.9102 M582.4063,76.9102 L608.4063,76.9102 M595.4063,95.9102 L582.4063,110.9102 M595.4063,95.9102 L608.4063,110.9102" fill="none" style="stroke:#000000;stroke-width:1;"/></g><g class="participant participant-tail" data-entity-uid="part4" data-qualified-name="operator" data-source-line="13" id="part4-tail"><text fill="#000000" font-family="sans-serif" font-size="14" lengthAdjust="spacing" textLength="42" x="571.4063" y="327.4863">&#25805;&#20316;&#21592;</text><ellipse cx="595.4063" cy="339.4395" fill="#FFFFFF" rx="8" ry="8" style="stroke:#000000;stroke-width:1;"/><path d="M595.4063,347.4395 L595.4063,374.4395 M582.4063,355.4395 L608.4063,355.4395 M595.4063,374.4395 L582.4063,389.4395 M595.4063,374.4395 L608.4063,389.4395" fill="none" style="stroke:#000000;stroke-width:1;"/></g><g class="message" data-entity-1="part1" data-entity-2="part2" data-source-line="14" id="msg1"><polygon fill="#4B5563" points="176.4399,156.709,186.4399,160.709,176.4399,164.709,180.4399,160.709" style="stroke:#4B5563;stroke-width:1;stroke-linejoin:miter;stroke-miterlimit:10;"/><line style="stroke:#4B5563;stroke-width:1;" x1="72.1851" x2="182.4399" y1="160.709" y2="160.709"/><text fill="#000000" font-family="sans-serif" font-size="13" lengthAdjust="spacing" textLength="91" x="79.1851" y="155.9668">&#26412;&#22320;&#20301;&#32622;&#19982;&#23039;&#24577;</text></g><g class="message" data-entity-1="part2" data-entity-2="part3" data-source-line="15" id="msg2"><polygon fill="#4B5563" points="383.9697,186.0195,393.9697,190.0195,383.9697,194.0195,387.9697,190.0195" style="stroke:#4B5563;stroke-width:1;stroke-linejoin:miter;stroke-miterlimit:10;"/><line style="stroke:#4B5563;stroke-width:1;" x1="188.4399" x2="389.9697" y1="190.0195" y2="190.0195"/><text fill="#000000" font-family="sans-serif" font-size="13" lengthAdjust="spacing" textLength="183.5298" x="195.4399" y="185.2773">/mavros/local_position/pose</text></g><g class="message" data-entity-1="part3" data-entity-2="part3" data-source-line="16" id="msg3"><line style="stroke:#4B5563;stroke-width:1;" x1="395.9697" x2="437.9697" y1="219.3301" y2="219.3301"/><line style="stroke:#4B5563;stroke-width:1;" x1="437.9697" x2="437.9697" y1="219.3301" y2="232.3301"/><line style="stroke:#4B5563;stroke-width:1;" x1="396.9697" x2="437.9697" y1="232.3301" y2="232.3301"/><polygon fill="#4B5563" points="406.9697,228.3301,396.9697,232.3301,406.9697,236.3301,402.9697,232.3301" style="stroke:#4B5563;stroke-width:1;stroke-linejoin:miter;stroke-miterlimit:10;"/><text fill="#000000" font-family="sans-serif" font-size="13" lengthAdjust="spacing" textLength="117" x="402.9697" y="214.5879">&#35745;&#31639;&#39057;&#29575;&#19982;&#28040;&#24687;&#24180;&#40836;</text></g><g class="message" data-entity-1="part3" data-entity-2="part4" data-source-line="17" id="msg4"><polygon fill="#4B5563" points="583.4063,257.6406,593.4063,261.6406,583.4063,265.6406,587.4063,261.6406" style="stroke:#4B5563;stroke-width:1;stroke-linejoin:miter;stroke-miterlimit:10;"/><line style="stroke:#4B5563;stroke-width:1;stroke-dasharray:2,2;" x1="395.9697" x2="589.4063" y1="261.6406" y2="261.6406"/><text fill="#000000" font-family="sans-serif" font-size="13" lengthAdjust="spacing" textLength="175.4365" x="402.9697" y="256.8984">x / y / z / &#23039;&#24577; / &#39057;&#29575; / &#24180;&#40836;</text></g><path d="M320,278.6406 L320,295.6406 A4,4 0 0 0 324,299.6406 L467,299.6406 A4,4 0 0 0 471,295.6406 L471,284.6406 L461,274.6406 L324,274.6406 A4,4 0 0 0 320,278.6406" fill="#FFFFFF" style="stroke:#000000;stroke-width:1;"/><path d="M461,274.6406 L461,282.6406 A2,2 0 0 0 463,284.6406 L471,284.6406 L461,274.6406" fill="#FFFFFF" style="stroke:#000000;stroke-width:1;"/><text fill="#000000" font-family="sans-serif" font-size="13" lengthAdjust="spacing" textLength="130" x="326" y="292.209">&#21482;&#35835;&#65292;&#19981;&#21457;&#24067;&#25511;&#21046;&#21629;&#20196;</text><?plantuml-src XL9FInj15B_lftZ6Sud4f8GUX1Z8pLOQABt9w-P51tTdjhCJjJqfBLHe4maU50c8_n144W_5fjMaNsPdavpy2XspCTdquk71pFlzUs-O6RL6Be7d8EEMlywuXn9T-83s-geK5LxA2qT8K1AvRo3YAiRorx0aDXbVXJ8wFiMGeTGMafE4RAnVeZ9M75KGNBr6ariqjaMIh1pZvAGKcr7iR7enatav7u-aZnNYDYsZLCnc7dAr-D-iiuLi8LV8FoCIiaHo94YbCwbitb9CEGIzypz1zplCfHxkZyB6jMxS19sgllohzwxwhRlmR3iylXZiT_k_MfOtyOF4yliqaA-OYqh81A0_kKqJbtBlthuf3XakRaZXJyDpgHL7sEYiUCAdo6SBNSyX2stZ1Obmlnfq6hf-E0I5HtAOCKw35miZOtW5umrwdMRGhfazmkqTQmGRuiZRC9DHCpaEPue9ddoSmdfYJGdwpPDUys1mMk_LlXdhy7Ott6dftpy7tQyJWL4yJMWaMv24JwO-cuf6COV8uR4JQRbG16B3_9n9LlJu3_S_WdPLxzLr-qjOkzIxjxhU2UxE_m40?></g></svg>