<svg xmlns="http://www.w3.org/2000/svg" xmlns:xlink="http://www.w3.org/1999/xlink" contentStyleType="text/css" data-diagram-type="SEQUENCE" height="400px" preserveAspectRatio="none" style="width:586px;height:400px;background:#F4F6F8;" version="1.1" viewBox="0 0 586 400" width="586px" zoomAndPan="magnify"><?plantuml 1.2026.6?><defs/><g><rect fill="#F4F6F8" height="400" style="stroke:none;stroke-width:1;" width="586" x="0" y="0"/><g class="title" data-source-line="9"><text fill="#000000" font-family="sans-serif" font-size="22" font-weight="700" lengthAdjust="spacing" textLength="308.0322" x="138.2622" y="36.2695">&#31034;&#20363; 01&#65306;FCU &#29366;&#24577;&#21482;&#35835;&#25968;&#25454;&#27969;</text></g><g class="participant-lifeline" data-entity-uid="part1" data-qualified-name="px4" data-source-line="10" id="part1-lifeline"><g><title>PX4</title><rect fill="#000000" fill-opacity="0.00000" height="187.8633" width="8" x="33.6772" y="129.3984"/><line style="stroke:#000000;stroke-width:1;stroke-dasharray:5,5;" x1="37" x2="37" y1="129.3984" y2="317.2617"/></g></g><g class="participant-lifeline" data-entity-uid="part2" data-qualified-name="mavros" data-source-line="11" id="part2-lifeline"><g><title>MAVROS</title><rect fill="#000000" fill-opacity="0.00000" height="187.8633" width="8" x="226.6772" y="129.3984"/><line style="stroke:#000000;stroke-width:1;stroke-dasharray:5,5;" x1="230.6074" x2="230.6074" y1="129.3984" y2="317.2617"/></g></g><g class="participant-lifeline" data-entity-uid="part3" data-qualified-name="example" data-source-line="12" id="part3-lifeline"><g><title>01_fcu_state</title><rect fill="#000000" fill-opacity="0.00000" height="187.8633" width="8" x="406.5566" y="129.3984"/><line style="stroke:#000000;stroke-width:1;stroke-dasharray:5,5;" x1="409.6304" x2="409.6304" y1="129.3984" y2="317.2617"/></g></g><g class="participant-lifeline" data-entity-uid="part4" data-qualified-name="operator" data-source-line="13" id="part4-lifeline"><g><title>...</title><rect fill="#000000" fill-opacity="0.00000" height="187.8633" width="8" x="547.5566" y="129.3984"/><line style="stroke:#000000;stroke-width:1;stroke-dasharray:5,5;" x1="551.5566" x2="551.5566" y1="129.3984" y2="317.2617"/></g></g><g class="participant participant-head" data-entity-uid="part1" data-qualified-name="px4" data-source-line="10" id="part1-head"><rect fill="#FFFFFF" height="26.4883" rx="4" ry="4" style="stroke:#24528C;stroke-width:1;" width="35.3545" x="20" y="96.9102"/><text fill="#000000" font-family="sans-serif" font-size="14" lengthAdjust="spacing" textLength="25.3545" x="25" y="115.4453">PX4</text></g><g class="participant participant-tail" data-entity-uid="part1" data-qualified-name="px4" data-source-line="10" id="part1-tail"><rect fill="#FFFFFF" height="26.4883" rx="4" ry="4" style="stroke:#24528C;stroke-width:1;" width="35.3545" x="20" y="321.2617"/><text fill="#000000" font-family="sans-serif" font-size="14" lengthAdjust="spacing" textLength="25.3545" x="25" y="339.7969">PX4</text></g><g class="participant participant-head" data-entity-uid="part2" data-qualified-name="mavros" data-source-line="11" id="part2-head"><rect fill="#FFFFFF" height="26.4883" rx="4" ry="4" style="stroke:#24528C;stroke-width:1;" width="68.1396" x="196.6074" y="96.9102"/><text fill="#000000" font-family="sans-serif" font-size="14" lengthAdjust="spacing" textLength="58.1396" x="201.6074" y="115.4453">MAVROS</text></g><g class="participant participant-tail" data-entity-uid="part2" data-qualified-name="mavros" data-source-line="11" id="part2-tail"><rect fill="#FFFFFF" height="26.4883" rx="4" ry="4" style="stroke:#24528C;stroke-width:1;" width="68.1396" x="196.6074" y="321.2617"/><text fill="#000000" font-family="sans-serif" font-size="14" lengthAdjust="spacing" textLength="58.1396" x="201.6074" y="339.7969">MAVROS</text></g><g class="participant participant-head" data-entity-uid="part3" data-qualified-name="example" data-source-line="12" id="part3-head"><rect fill="#FFFFFF" height="26.4883" rx="4" ry="4" style="stroke:#24528C;stroke-width:1;" width="95.8525" x="362.6304" y="96.9102"/><text fill="#000000" font-family="sans-serif" font-size="14" lengthAdjust="spacing" textLength="85.8525" x="367.6304" y="115.4453">01_fcu_state</text></g><g class="participant participant-tail" data-entity-uid="part3" data-qualified-name="example" data-source-line="12" id="part3-tail"><rect fill="#FFFFFF" height="26.4883" rx="4" ry="4" style="stroke:#24528C;stroke-width:1;" width="95.8525" x="362.6304" y="321.2617"/><text fill="#000000" font-family="sans-serif" font-size="14" lengthAdjust="spacing" textLength="85.8525" x="367.6304" y="339.7969">01_fcu_state</text></g><g class="participant participant-head" data-entity-uid="part4" data-qualified-name="operator" data-source-line="13" id="part4-head"><text fill="#000000" font-family="sans-serif" font-size="14" lengthAdjust="spacing" textLength="42" x="527.5566" y="126.4453">&#25805;&#20316;&#21592;</text><ellipse cx="551.5566" cy="60.9102" fill="#FFFFFF" rx="8" ry="8" style="stroke:#000000;stroke-width:1;"/><path d="M551.5566,68.9102 L551.5566,95.9102 M538.5566,76.9102 L564.5566,76.9102 M551.5566,95.9102 L538.5566,110.9102 M551.5566,95.9102 L564.5566,110.9102" fill="none" style="stroke:#000000;stroke-width:1;"/></g><g class="participant participant-tail" data-entity-uid="part4" data-qualified-name="operator" data-source-line="13" id="part4-tail"><text fill="#000000" font-family="sans-serif" font-size="14" lengthAdjust="spacing" textLength="42" x="527.5566" y="329.7969">&#25805;&#20316;&#21592;</text><ellipse cx="551.5566" cy="341.75" fill="#FFFFFF" rx="8" ry="8" style="stroke:#000000;stroke-width:1;"/><path d="M551.5566,349.75 L551.5566,376.75 M538.5566,357.75 L564.5566,357.75 M551.5566,376.75 L538.5566,391.75 M551.5566,376.75 L564.5566,391.75" fill="none" style="stroke:#000000;stroke-width:1;"/></g><g class="message" data-entity-1="part1" data-entity-2="part2" data-source-line="14" id="msg1"><polygon fill="#4B5563" points="218.6772,156.709,228.6772,160.709,218.6772,164.709,222.6772,160.709" style="stroke:#4B5563;stroke-width:1;stroke-linejoin:miter;stroke-miterlimit:10;"/><line style="stroke:#4B5563;stroke-width:1;" x1="37.6772" x2="224.6772" y1="160.709" y2="160.709"/><text fill="#000000" font-family="sans-serif" font-size="13" lengthAdjust="spacing" textLength="169" x="44.6772" y="155.9668">&#24515;&#36339;&#12289;&#27169;&#24335;&#12289;&#35299;&#38145;&#12289;&#33853;&#22320;&#29366;&#24577;</text></g><g class="message" data-entity-1="part2" data-entity-2="part3" data-source-line="15" id="msg2"><polygon fill="#4B5563" points="398.5566,186.0195,408.5566,190.0195,398.5566,194.0195,402.5566,190.0195" style="stroke:#4B5563;stroke-width:1;stroke-linejoin:miter;stroke-miterlimit:10;"/><line style="stroke:#4B5563;stroke-width:1;" x1="230.6772" x2="404.5566" y1="190.0195" y2="190.0195"/><text fill="#000000" font-family="sans-serif" font-size="13" lengthAdjust="spacing" textLength="90.3843" x="237.6772" y="185.2773">/mavros/state</text></g><g class="message" data-entity-1="part2" data-entity-2="part3" data-source-line="16" id="msg3"><polygon fill="#4B5563" points="398.5566,215.3301,408.5566,219.3301,398.5566,223.3301,402.5566,219.3301" style="stroke:#4B5563;stroke-width:1;stroke-linejoin:miter;stroke-miterlimit:10;"/><line style="stroke:#4B5563;stroke-width:1;" x1="230.6772" x2="404.5566" y1="219.3301" y2="219.3301"/><text fill="#000000" font-family="sans-serif" font-size="13" lengthAdjust="spacing" textLength="155.8794" x="237.6772" y="214.5879">/mavros/extended_state</text></g><g class="message" data-entity-1="part3" data-entity-2="part4" data-source-line="17" id="msg4"><polygon fill="#4B5563" points="539.5566,244.6406,549.5566,248.6406,539.5566,252.6406,543.5566,248.6406" style="stroke:#4B5563;stroke-width:1;stroke-linejoin:miter;stroke-miterlimit:10;"/><line style="stroke:#4B5563;stroke-width:1;stroke-dasharray:2,2;" x1="410.5566" x2="545.5566" y1="248.6406" y2="248.6406"/><text fill="#000000" font-family="sans-serif" font-size="13" lengthAdjust="spacing" textLength="117" x="417.5566" y="243.8984">&#20165;&#22312;&#29366;&#24577;&#21464;&#21270;&#26102;&#25171;&#21360;</text></g><path d="M361,265.6406 L361,297.6406 A4,4 0 0 0 365,301.6406 L456,301.6406 A4,4 0 0 0 460,297.6406 L460,271.6406 L450,261.6406 L365,261.6406 A4,4 0 0 0 361,265.6406" fill="#FFFFFF" style="stroke:#000000;stroke-width:1;"/><path d="M450,261.6406 L450,269.6406 A2,2 0 0 0 452,271.6406 L460,271.6406 L450,261.6406" fill="#FFFFFF" style="stroke:#000000;stroke-width:1;"/><text fill="#000000" font-family="sans-serif" font-size="13" lengthAdjust="spacing" textLength="39" x="367" y="279.209">&#19981;&#35299;&#38145;</text><text fill="#000000" font-family="sans-serif" font-size="13" lengthAdjust="spacing" textLength="78" x="367" y="294.5195">&#19981;&#21457;&#24067;&#35774;&#23450;&#28857;</text><?plantuml-src XPBDInj16CRlyrUyfcVnenkH7WeQs5kh61HlydRtZIvkPhQp4ytHL3oq6gBO3v5SIWkAXnYGMbi_-iUOsSIJ_uBZxeQk23gdbtcUtppF33EWbgXC4FZeSHOkUpn0YMLuXyxoeXGLxXQ4BoIyi2rxp1xFEC8bTCMgnnUXX7v86IN6724vISWIBfMmuYjRSFKMJMOHULWawPKodWafnMeQQKtcysCliv7qlaBSeMcKodEy0BcQVDGpNiz0GheaKs3Koe-E5vZob4_G_VctSxK9moEt5_jsOHQwdqwZjPfk7FMEpwClxQZUYdxLMF3_ACXDprivm122glLGU3CnDpDLZBKohaWHFfI7HnPAJcKXLAWeDb4Lou5F31rbUkMYtNhdigbtzc9H12JHx3CJ0uElqnFX5UX_wxtV9zThjUZmkxvecA5tyEFcS-r-sBxKpNPo1PO21arp33kKR0x57PvqK5KHTybDwhA-OT2O-ysCktE-ePk7_JVRqrjVes-dqSTTNMypBXI1M35VedzFWCvPFIcRpBgney_MUwqhtThlVlZ3J2BSOtS0?></g></svg>